<?xml version="1.0" encoding="UTF-8"?>
<svg width="300px" height="300px" viewBox="0 0 300 300" version="1.1" xmlns="http://www.w3.org/2000/svg" xmlns:xlink="http://www.w3.org/1999/xlink">
    <!-- Generator: Sketch 46.2 (44496) - http://www.bohemiancoding.com/sketch -->
    <title>Group 2</title>
    <desc>Created with Sketch.</desc>
    <defs>
        <circle id="path-1" cx="150" cy="150" r="150"></circle>
        <polygon id="path-3" points="0 174 174 174 174 0 0 0"></polygon>
    </defs>
    <g id="Page-1" stroke="none" stroke-width="1" fill="none" fill-rule="evenodd">
        <g id="Artboard-8" transform="translate(-744.000000, -1173.000000)">
            <g id="Group-2" transform="translate(744.000000, 1173.000000)">
                <mask id="mask-2" fill="white">
                    <use xlink:href="#path-1"></use>
                </mask>
                <g id="Mask"></g>
                <g mask="url(#mask-2)">
                    <g transform="translate(-55.000000, -83.000000)">
                        <rect id="caution-zone-copy" fill="#29323C" fill-rule="evenodd" x="0" y="0" width="496" height="716" rx="3"></rect>
                        <text id="00111000-01110100-01" fill="none" font-family="PTMono-Regular, PT Mono" font-size="23" font-weight="normal" letter-spacing="0.306111097">
                            <tspan x="9" y="24" fill="#9B9B9B">00111000 01110100 01101 000 </tspan>
                            <tspan x="9" y="49" fill="#9B9B9B">00100000 01101100 0 1101001 </tspan>
                            <tspan x="9" y="74" fill="#9B9B9B">01100111 011010 00 01110100 </tspan>
                            <tspan x="9" y="99" fill="#9B9B9B">00100000 01 110011 01101111 0110011 </tspan>
                            <tspan x="9" y="124" fill="#9B9B9B">0 01110100 01110111 011 00001 </tspan>
                            <tspan x="9" y="149" fill="#9B9B9B">01110010 01100101 00100000 01101001 </tspan>
                            <tspan x="9" y="174" fill="#9B9B9B">01110 011 00100000 01101111 0 </tspan>
                            <tspan x="9" y="199" fill="#9B9B9B">1110101 01110010 001000 00 01100011 </tspan>
                            <tspan x="9" y="224" fill="#9B9B9B">01110010 01 100001 01100110 0111010 </tspan>
                            <tspan x="9" y="249" fill="#9B9B9B">0 00101110 00111000 011 10100 </tspan>
                            <tspan x="9" y="274" fill="#9B9B9B">01101000 00100000 01101100 01101001 </tspan>
                            <tspan x="9" y="299" fill="#9B9B9B">01100 111 01101000 01110100 0 </tspan>
                            <tspan x="9" y="324" fill="#9B9B9B">0100000 00001010 001011 10 00101110 </tspan>
                            <tspan x="9" y="349" fill="#9B9B9B">00101110 00111000 01110100 01101 </tspan>
                            <tspan x="9" y="374" fill="#9B9B9B">000 00100000 01101100 0 1101001 </tspan>
                            <tspan x="9" y="399" fill="#9B9B9B">01100111 011010 0 01110100 00100000 </tspan>
                            <tspan x="9" y="424" fill="#9B9B9B">01 110011 01101111 0110011 0 </tspan>
                            <tspan x="9" y="449" fill="#9B9B9B">01110100 01110111 011 00001 </tspan>
                            <tspan x="9" y="474" fill="#9B9B9B">01110010 01100101 00100000 01101001</tspan>
                        </text>
                        <g id="8th-Light-Logo-No-Text-BW-8fcb6264-Copy" stroke-width="1" fill="none" fill-rule="evenodd" transform="translate(118.000000, 146.000000)">
                            <mask id="mask-4" fill="white">
                                <use xlink:href="#path-3"></use>
                            </mask>
                            <g id="Clip-2"></g>
                            <path d="M93.2492996,92 L174,2.97626107 L171.023525,0 L82,80.5302848 C86.5650509,83.4482446 90.4198968,87.3770173 93.2492996,92" id="Fill-1" fill="#27A8E0" mask="url(#mask-4)"></path>
                            <path d="M63.3001673,126.713843 C54.5640259,126.713843 47.4818094,119.626415 47.4818094,110.882571 C47.4818094,102.154209 54.5640259,95.0669756 63.3001673,95.0669756 C72.0378587,95.0669756 79.1152318,102.154209 79.1152318,110.882571 C79.1152318,119.626415 72.0378587,126.713843 63.3001673,126.713843 L63.3001673,126.713843 Z M71.5015972,84.7226448 L65.2299725,0 L61.0092381,0 L54.7232769,84.8486323 C53.3436823,85.3022648 52.0082594,85.866209 50.7344446,86.5197572 L6.62984271,51.2370566 L3.64533825,54.2230191 L38.9301047,98.3238789 C38.2363358,99.6751 37.6404036,101.083219 37.173887,102.554234 L0,108.750266 L0,112.970752 L37.1549009,119.160397 C37.6373038,120.6916 38.2555156,122.158939 38.9868694,123.560864 L17.352554,153.850511 L20.3339587,156.833183 L50.6224651,135.199906 C51.9642813,135.902417 53.3737113,136.497713 54.8400998,136.973408 L61.0092381,174 L65.2299725,174 L71.3739251,137.099008 C72.9379566,136.617507 74.4341804,135.993569 75.86744,135.259706 L119.971848,170.544729 L122.951703,167.56167 L87.6715862,123.456746 C88.3607054,122.105525 88.9531504,120.697599 89.4202481,119.236067 L174,112.970752 L174,108.750266 L89.3977747,102.485144 C86.6829509,94.0368195 79.9825882,87.3798011 71.5015972,84.7226448 L71.5015972,84.7226448 Z" id="Fill-3" fill="#FFFFFF" mask="url(#mask-4)"></path>
                        </g>
                    </g>
                </g>
            </g>
        </g>
    </g>
</svg>