<?xml version="1.0" encoding="UTF-8"?>
<svg width="302px" height="302px" viewBox="0 0 302 302" version="1.1" xmlns="http://www.w3.org/2000/svg" xmlns:xlink="http://www.w3.org/1999/xlink">
    <!-- Generator: Sketch 46.2 (44496) - http://www.bohemiancoding.com/sketch -->
    <title>Group 2 Copy</title>
    <desc>Created with Sketch.</desc>
    <defs></defs>
    <g id="Page-1" stroke="none" stroke-width="1" fill="none" fill-rule="evenodd">
        <g id="Artboard-8" transform="translate(-1487.000000, -1755.000000)">
            <g id="Group-2-Copy" transform="translate(1488.000000, 1756.000000)">
                <circle id="Oval" stroke="#FFFFFF" stroke-width="2" fill="#769EE8" cx="150" cy="150" r="150"></circle>
                <g id="Group-2" transform="translate(57.000000, 57.000000)">
                    <g id="8th-Light-Logo-No-Text-BW-8fcb6264-Copy">
                        <path d="M100.105225,99 L187,3.20271572 L183.797054,0 L88,86.6575891 C92.9123918,89.7975676 97.0605412,94.0252686 100.105225,99" id="Fill-1" fill="#064FFA"></path>
                        <path d="M68.0294902,136.180969 C58.6406485,136.180969 51.0293009,128.564021 51.0293009,119.166901 C51.0293009,109.78642 58.6406485,102.169681 68.0294902,102.169681 C77.4199976,102.169681 85.0261399,109.78642 85.0261399,119.166901 C85.0261399,128.564021 77.4199976,136.180969 68.0294902,136.180969 L68.0294902,136.180969 Z M76.8436706,91.0524976 L70.1034762,0 L65.5673996,0 L58.8117976,91.187898 C57.3291298,91.6754226 55.8939339,92.2815005 54.5249491,92.983877 L7.12517578,55.0651126 L3.91769111,58.2741642 L41.8386757,105.669916 C41.0930735,107.12209 40.4526176,108.635413 39.9512464,110.216332 L0,116.875286 L0,121.411095 L39.9308418,128.063185 C40.4492862,129.708789 41.1136863,131.285756 41.8996814,132.792423 L18.6490092,165.345089 L21.8531625,168.550605 L54.4046033,145.301048 C55.8466701,146.056046 57.3614024,146.695818 58.9373486,147.207053 L65.5673996,187 L70.1034762,187 L76.7064598,147.342037 C78.3873441,146.824562 79.9953548,146.154008 81.535697,145.365316 L128.935262,183.286577 L132.13775,180.080645 L94.2217621,132.680526 C94.9623673,131.228351 95.5990754,129.715236 96.1010712,128.144508 L187,121.411095 L187,116.875286 L96.0769188,110.14208 C93.1592633,101.062559 85.9582989,93.9081771 76.8436706,91.0524976 L76.8436706,91.0524976 Z" id="Fill-3" fill="#FFFFFF"></path>
                    </g>
                </g>
            </g>
        </g>
    </g>
</svg>