<?xml version="1.0" encoding="UTF-8"?>
<svg width="302px" height="302px" viewBox="0 0 302 302" version="1.1" xmlns="http://www.w3.org/2000/svg" xmlns:xlink="http://www.w3.org/1999/xlink">
    <!-- Generator: Sketch 46.2 (44496) - http://www.bohemiancoding.com/sketch -->
    <title>Cherry Blossom in Circle Copy 2</title>
    <desc>Created with Sketch.</desc>
    <defs>
        <linearGradient x1="71.4507059%" y1="61.1474232%" x2="17.3782051%" y2="26.8684024%" id="linearGradient-1">
            <stop stop-color="#FDF6FA" offset="0%"></stop>
            <stop stop-color="#F5DAE8" offset="100%"></stop>
        </linearGradient>
        <linearGradient x1="82.1393805%" y1="88.3022222%" x2="17.8606195%" y2="11.6977778%" id="linearGradient-2">
            <stop stop-color="#FDE9F0" offset="0%"></stop>
            <stop stop-color="#F6D6E0" offset="100%"></stop>
        </linearGradient>
        <linearGradient x1="40.7332314%" y1="27.6723304%" x2="60.1210404%" y2="88.6887174%" id="linearGradient-3">
            <stop stop-color="#FDF6FA" offset="0%"></stop>
            <stop stop-color="#F5DAE8" offset="100%"></stop>
        </linearGradient>
        <linearGradient x1="50%" y1="0%" x2="50%" y2="100%" id="linearGradient-4">
            <stop stop-color="#FDE9F0" offset="0%"></stop>
            <stop stop-color="#F6D6E0" offset="100%"></stop>
        </linearGradient>
        <linearGradient x1="50%" y1="0%" x2="50%" y2="100%" id="linearGradient-5">
            <stop stop-color="#FBE9F1" offset="0%"></stop>
            <stop stop-color="#FFF1F8" offset="100%"></stop>
        </linearGradient>
        <linearGradient x1="3.01536896%" y1="32.8989928%" x2="96.984631%" y2="67.1010072%" id="linearGradient-6">
            <stop stop-color="#FBE9F1" offset="0%"></stop>
            <stop stop-color="#FFF1F8" offset="100%"></stop>
        </linearGradient>
        <linearGradient x1="50%" y1="0%" x2="50%" y2="100%" id="linearGradient-7">
            <stop stop-color="#FBEAF2" offset="0%"></stop>
            <stop stop-color="#FAE1EC" offset="100%"></stop>
        </linearGradient>
        <radialGradient cx="51.5545557%" cy="17.0740448%" fx="51.5545557%" fy="17.0740448%" r="57.0780449%" gradientTransform="translate(0.515546,0.170740),scale(1.000000,0.981209),rotate(117.704351),scale(1.000000,0.837477),translate(-0.515546,-0.170740)" id="radialGradient-8">
            <stop stop-color="#FDEFF5" offset="0%"></stop>
            <stop stop-color="#FFECF4" offset="100%"></stop>
        </radialGradient>
        <linearGradient x1="50%" y1="0%" x2="50%" y2="100%" id="linearGradient-9">
            <stop stop-color="#FBD8E7" offset="0%"></stop>
            <stop stop-color="#F1D1DE" offset="100%"></stop>
        </linearGradient>
        <radialGradient cx="50%" cy="0%" fx="50%" fy="0%" r="100%" gradientTransform="translate(0.500000,0.000000),scale(0.833322,1.000000),rotate(90.000000),translate(-0.500000,-0.000000)" id="radialGradient-10">
            <stop stop-color="#FFDBE6" offset="0%"></stop>
            <stop stop-color="#FFF2F7" offset="100%"></stop>
        </radialGradient>
        <radialGradient cx="50%" cy="0%" fx="50%" fy="0%" r="100%" gradientTransform="translate(0.500000,0.000000),scale(0.680044,1.000000),rotate(90.000000),translate(-0.500000,-0.000000)" id="radialGradient-11">
            <stop stop-color="#FFBFD3" offset="0%"></stop>
            <stop stop-color="#FDE9F1" offset="100%"></stop>
        </radialGradient>
        <radialGradient cx="50%" cy="0%" fx="50%" fy="0%" r="100%" gradientTransform="translate(0.500000,0.000000),scale(0.867131,1.000000),rotate(90.000000),translate(-0.500000,-0.000000)" id="radialGradient-12">
            <stop stop-color="#FFDBE6" offset="0%"></stop>
            <stop stop-color="#FFF2F7" offset="100%"></stop>
        </radialGradient>
        <radialGradient cx="50%" cy="0%" fx="50%" fy="0%" r="100%" gradientTransform="translate(0.500000,0.000000),scale(0.692679,1.000000),rotate(90.000000),translate(-0.500000,-0.000000)" id="radialGradient-13">
            <stop stop-color="#FFBFD3" offset="0%"></stop>
            <stop stop-color="#FDE9F1" offset="100%"></stop>
        </radialGradient>
        <radialGradient cx="50%" cy="0%" fx="50%" fy="0%" r="100%" gradientTransform="translate(0.500000,0.000000),scale(0.906312,1.000000),rotate(90.000000),translate(-0.500000,-0.000000)" id="radialGradient-14">
            <stop stop-color="#FFDBE6" offset="0%"></stop>
            <stop stop-color="#FFF2F7" offset="100%"></stop>
        </radialGradient>
        <radialGradient cx="50%" cy="0%" fx="50%" fy="0%" r="100%" gradientTransform="translate(0.500000,0.000000),scale(0.780829,1.000000),rotate(90.000000),translate(-0.500000,-0.000000)" id="radialGradient-15">
            <stop stop-color="#FFBFD3" offset="0%"></stop>
            <stop stop-color="#FDE9F1" offset="100%"></stop>
        </radialGradient>
        <radialGradient cx="34.8833071%" cy="20.7080085%" fx="34.8833071%" fy="20.7080085%" r="57.0780449%" gradientTransform="translate(0.348833,0.207080),scale(0.927992,1.000000),rotate(88.011006),scale(1.000000,0.837477),translate(-0.348833,-0.207080)" id="radialGradient-16">
            <stop stop-color="#FEE3F0" offset="0%"></stop>
            <stop stop-color="#FFF5F9" offset="100%"></stop>
        </radialGradient>
        <linearGradient x1="50%" y1="0%" x2="50%" y2="100%" id="linearGradient-17">
            <stop stop-color="#FFE8F1" offset="0%"></stop>
            <stop stop-color="#FAD3E2" offset="100%"></stop>
        </linearGradient>
        <linearGradient x1="3.01536896%" y1="32.8989928%" x2="96.984631%" y2="67.1010072%" id="linearGradient-18">
            <stop stop-color="#FFE8F1" offset="0%"></stop>
            <stop stop-color="#FAD3E2" offset="100%"></stop>
        </linearGradient>
        <radialGradient cx="50%" cy="0%" fx="50%" fy="0%" r="100%" gradientTransform="translate(0.500000,0.000000),scale(0.972629,1.000000),rotate(90.000000),translate(-0.500000,-0.000000)" id="radialGradient-19">
            <stop stop-color="#FFDEED" offset="0%"></stop>
            <stop stop-color="#FFEDF6" offset="100%"></stop>
        </radialGradient>
        <linearGradient x1="50%" y1="0%" x2="50%" y2="100%" id="linearGradient-20">
            <stop stop-color="#FAEAF1" offset="0%"></stop>
            <stop stop-color="#F0C9D8" offset="100%"></stop>
        </linearGradient>
        <linearGradient x1="50%" y1="0%" x2="50%" y2="100%" id="linearGradient-21">
            <stop stop-color="#FDF3F7" offset="0%"></stop>
            <stop stop-color="#F9D5E5" offset="100%"></stop>
        </linearGradient>
        <linearGradient x1="35.5743513%" y1="0%" x2="40.4294638%" y2="44.095937%" id="linearGradient-22">
            <stop stop-color="#FFD9EA" offset="0%"></stop>
            <stop stop-color="#FEF1F6" offset="100%"></stop>
        </linearGradient>
        <linearGradient x1="50%" y1="79.1432406%" x2="50%" y2="90.1001164%" id="linearGradient-23">
            <stop stop-color="#F9D9E4" offset="0%"></stop>
            <stop stop-color="#F8EBF1" offset="100%"></stop>
        </linearGradient>
    </defs>
    <g id="Page-1" stroke="none" stroke-width="1" fill="none" fill-rule="evenodd">
        <g id="Artboard-8" transform="translate(-1914.000000, -1729.000000)">
            <g id="Cherry-Blossom-in-Circle-Copy-2" transform="translate(1915.000000, 1730.000000)">
                <circle id="Oval-7" stroke="#FFFFFF" stroke-width="2" fill="#769EE8" cx="150" cy="150" r="150"></circle>
                <g id="Cherry-Blossom" transform="translate(59.286776, 39.004458)">
                    <path d="M45.5992715,74.5148716 C41.2427501,68.6933701 37.8673728,63.6359738 35.4731396,59.3426827 C33.0789064,55.0493916 31.8717984,51.889567 31.8518156,49.8632088" id="Path-119" stroke="#C4C4C4" stroke-width="2"></path>
                    <path d="M74.718073,80.8612584 C76.7700198,81.9011505 78.0661441,81.9665487 79.0891244,83.0749598 C79.6910174,83.7271178 81.8378282,87.5417431 81.1519854,88.1257971 C80.4619075,88.7134575 77.1974275,88.4168223 76.3481761,87.8916198 C75.3066541,87.2475115 74.5354284,86.1426805 73.6441759,84.8385297 C72.7663855,83.5540779 71.0941451,90.4865176 67.8980461,90.1222512 C65.7673135,89.8794069 64.8299159,87.1845193 65.0858534,82.0375883 C61.6191409,82.1380588 59.8624336,81.1099421 59.8157314,78.9532382 C59.7690292,76.7965343 61.4227875,75.6997309 64.7770063,75.6628279 C65.3467974,72.2888193 66.0810245,70.609651 66.9796874,70.625323 C67.8783504,70.640995 69.4156633,72.2155661 71.5916262,75.3490366 C77.436105,75.6457319 80.560194,76.5231137 80.963893,77.9811817 C81.5694416,80.1682839 74.0032626,79.8986997 74.718073,80.8612584 Z" id="Path-114" fill="url(#linearGradient-1)"></path>
                    <path d="M73.2366033,79.2017938 C72.1008373,78.362501 68.7019942,80.1842258 68.2521008,81.0566024 C67.8022074,81.9289791 69.3364754,85.4023768 70.2219888,85.6363116 C71.1075022,85.8702463 69.8534249,81.4660952 70.6799837,81.2342728 C71.5065425,81.0024504 73.1674634,85.2995698 73.7118245,84.657528 C74.2561855,84.0154863 74.3723693,80.0410865 73.2366033,79.2017938 Z" id="Path-113" fill="url(#linearGradient-2)"></path>
                    <g id="Group-10" transform="translate(161.851729, 71.945365)">
                        <path d="M4.99656902,7.24537005 C4.32803865,5.66508792 3.62469651,5.00522171 3.57176701,3.87990041 C3.54062478,3.21779286 4.13690076,0.0047317597 4.80306172,9.7249463e-06 C5.47333621,-0.00474146829 7.18211831,1.73269062 7.41375014,2.44096875 C7.69782342,3.30960105 7.60980307,4.31197071 7.49507605,5.4859987 C7.38208195,6.64229329 11.6239287,3.47983836 13.2618258,5.22311765 C14.3537572,6.38530384 13.6042962,8.37703112 11.0134429,11.1982995 C13.0255209,12.8056977 13.5323562,14.2374569 12.5339488,15.4935771 C11.5355414,16.7496974 10.0772735,16.5828896 8.1591449,14.9931537 C6.23294985,16.6495369 5.01897248,17.2574571 4.51721278,16.8169143 C4.01545309,16.3763715 3.89260893,14.7373889 4.14868033,11.8999663 C0.978028815,8.92346934 -0.375231946,6.92125692 0.0888980462,5.89332903 C0.785093034,4.3514372 4.94419031,8.13926301 4.99656902,7.24537005 Z" id="Path-114-Copy" fill="url(#linearGradient-3)"></path>
                        <path d="M4.85903829,11.7125272 C5.10376077,12.7380704 7.89532574,13.3282715 8.56480284,13.0453078 C9.23427993,12.7623441 10.0154873,10.0386446 9.62489747,9.47956469 C9.2343076,8.9204848 7.85204049,12.0420398 7.27352715,11.777698 C6.69501381,11.5133562 7.7958905,8.25764169 7.18234106,8.36348013 C6.56879162,8.46931858 4.6143158,10.686984 4.85903829,11.7125272 Z" id="Path-113-Copy" fill="url(#linearGradient-4)"></path>
                    </g>
                    <path d="M114.472995,99.4523028 C140.297168,120.728139 147.146608,124.834454 148.751101,129.65928 C162.101967,169.806289 166.144854,168.322224 164.607608,181.096696 C163.070363,193.871168 154.602842,207.834821 152.525463,222.650518 C156.737281,220.659069 155.402217,220.90332 160.429022,218.478329 C166.538022,188.255274 176.441445,185.655898 174.511494,182.02125 C171.016193,175.438605 151.896181,134.51148 154.602842,128.478125 C156.745746,123.701429 159.19216,119.110082 161.460135,115.04314 C174.071952,113.420989 179.489699,112.475009 177.713375,112.205199 C176.324437,111.994231 171.526028,112.752595 166.581551,112.861588 C165.677495,112.881517 164.531039,112.613562 163.142183,112.057725 C166.541139,106.073362 169.186478,101.619243 169.164857,100.041417 C169.157527,99.5065473 169.115496,98.9217187 169.042751,98.2947922 C173.400976,92.3623009 175.935756,88.9588026 176.647089,88.0842973 C177.761661,86.7140551 171.741856,94.5246007 171.129166,95.0963608 C170.509391,95.6747319 169.69798,96.0010544 168.694933,96.0753285 C166.737806,85.8307646 159.307147,68.633763 158.367937,68.0684733 C157.291726,67.4207257 169.518327,97.3201139 167.211103,100.630875 C165.672953,102.838049 160.77774,111.174381 152.525463,125.63987 C142.110983,116.872705 134.749139,110.697182 130.439932,107.1133 C119.011162,97.6082202 110.389854,90.6031933 104.576011,86.0982199 C101.670216,83.8466062 90.6152921,61.3223017 84.1963187,54.4263185 C77.7773453,47.5303352 68.2344588,41.522204 67.8062009,37.1170378 C66.9658354,28.4728331 66.7842022,15.2130853 62.0324136,4.78587365 C61.527319,3.67750621 57.1527777,-1.79732953 58.7447801,0.659170827 C60.3367826,3.11567119 66.4559034,15.5843764 66.4559034,36.3134167 C66.4559034,44.2049035 75.8839061,46.6705372 84.1963187,57.3055744 C87.6403992,61.7119876 92.7143179,71.3095361 99.4180747,86.0982199 C78.0751817,82.5038569 63.6370933,79.7272538 56.1038095,77.7684108 C41.0728227,73.8599765 30.1413195,69.0960533 26.8326624,69.1507509 C18.1386264,69.2944779 13.417158,70.4064805 14.1337464,70.766593 C14.8503347,71.1267054 22.9898496,69.5591865 28.049611,70.766593 C38.4050708,73.2377073 47.663986,77.6446713 59.9440456,81.1406321 C59.4193093,81.7945281 58.7894337,82.4314577 58.0544186,83.0514208 C56.4067299,84.4411968 53.6087821,87.8527153 53.7217029,88.0899515 C53.8346237,88.3271876 56.1415721,86.1943713 58.4673497,84.3556388 C59.758138,83.3351567 61.3898752,82.5723244 63.3625613,82.0671418 C64.7994917,82.4366356 66.278791,82.7915365 67.8062009,83.1278748 C84.2452082,86.7477723 98.9718948,86.5242593 104.576011,91.224337 C107.236845,93.4559335 109.740656,95.5405551 112.096591,97.4901184 C106.712831,98.4548393 102.877999,98.8996703 100.592097,98.8246115 C97.8517257,98.73463 95.6188351,98.8120119 93.8934253,99.0567572 C96.0147455,99.5699736 97.9937687,99.9340202 99.830495,100.148897 C101.383498,100.330581 106.264332,100.098383 114.472995,99.4523028 Z" id="Combined-Shape" stroke="#C4C4C4" stroke-width="2" fill="#FFFFFF"></path>
                    <g id="Group-8" transform="translate(150.856367, 115.510344)">
                        <g id="Group-7" fill="#FAEBF1">
                            <path d="M13.4956974,7.55350069 C14.1112294,7.55350069 16.8801019,3.92514094 18.5424131,3.06613283 C20.6950936,1.95372385 23.3355614,1.82219298 24.100063,3.06613283 C24.8942737,4.35841311 24.3790686,6.89501534 22.9689816,8.46817346 C21.9735839,9.57868508 17.923667,10.3510608 17.8748955,10.9057726 C17.8261239,11.4604843 23.8908584,16.4082598 20.7977593,19.9110668 C18.7356932,22.2462715 16.3016726,21.7447651 13.4956974,18.4065478 C11.4280306,22.6801149 9.32981477,24.5573464 7.20104978,24.0382422 C5.07228479,23.5191381 4.62906787,20.8003363 5.87139903,15.881837 C2.49123369,14.3960331 0.555173496,12.737345 0.063218444,10.9057726 C-0.428736608,9.07420013 1.9505405,7.95677617 7.20104978,7.55350069 C8.11046522,5.32405736 8.80571243,3.82826808 9.28679141,3.06613283 C10.636336,0.928156375 11.9980169,-7.271026e-17 12.4058573,0 C12.7600473,-6.31454224e-17 13.925239,1.45364937 14.1112294,3.06613283 C14.2539175,4.30319845 12.8801654,7.55350069 13.4956974,7.55350069 Z" id="Path-120"></path>
                        </g>
                        <path d="M9.06200723,11.3946859 C9.06200723,13.388876 8.51369508,14.9399326 9.06200723,15.3830661 C9.61031937,15.8261995 10.5724227,13.388876 11.5295227,13.388876 C12.4866227,13.388876 12.7598565,15.9768744 13.2815587,15.3830661 C13.8032609,14.7892578 12.6685789,13.1352531 13.2815587,11.3946859 C13.8945385,9.65411869 16.224121,8.70757253 15.7435192,8.39228485 C15.2629175,8.07699716 12.863177,10.2453032 11.5295227,10.2453032 C10.1958684,10.2453032 9.65987185,8.11379612 9.06200723,8.39228485 C8.4641426,8.67077358 9.06200723,9.40049579 9.06200723,11.3946859 Z" id="Path-121" fill="#FADDE8"></path>
                    </g>
                    <path d="M40.6772122,58.0351818 C41.5970741,51.3530877 43.2899079,47.9245094 45.7557134,47.7494469 C48.2215189,47.5743844 49.6160473,50.7559249 49.9392984,57.2940684 C53.2634716,54.3992682 55.3049664,53.8015249 56.0637829,55.5008386 C56.8225994,57.2001522 55.7128013,60.264907 52.7343885,64.6951028 C54.3854526,68.3702546 54.3854526,70.8386591 52.7343885,72.1003165 C51.0833245,73.3619739 48.4464952,72.46147 44.8239007,69.3988049 C40.4694079,73.3479271 37.6786108,74.635008 36.4515094,73.2600476 C35.2244079,71.8850872 35.6783055,69.4181918 37.8132021,65.8593614 C33.1491493,61.2938055 31.3440014,58.1561467 32.3977585,56.4463851 C33.4515156,54.7366234 36.2113335,55.2662223 40.6772122,58.0351818 Z" id="Path-108" fill="url(#linearGradient-5)"></path>
                    <path d="M157.394819,95.417277 C153.279612,93.1852908 151.437605,91.2640148 151.868798,89.6534491 C152.299991,88.0428834 154.663886,87.9407528 158.960482,89.3470574 C157.823544,86.5203941 157.887915,85.0753458 159.153596,85.0119124 C160.419276,84.9484789 162.154869,86.4094539 164.360374,89.3948371 C167.099893,89.2513225 168.695085,89.8598331 169.145952,91.2203689 C169.596819,92.5809047 168.432794,94.0350346 165.653877,95.5827588 C167.244721,99.3242644 167.460422,101.415548 166.300979,101.85661 C165.141537,102.297672 163.647517,101.40101 161.818921,99.1666235 C157.838867,101.005867 155.412687,101.379829 154.54038,100.288509 C153.668073,99.1971899 154.619552,97.5734458 157.394819,95.417277 Z" id="Path-108-Copy" fill="url(#linearGradient-6)"></path>
                    <path d="M47.9764593,91.7090929 C47.9764593,91.7090929 46.3669385,97.4602179 48.6081425,99.512534 C49.6723452,100.487046 51.8711631,99.0435428 55.204596,95.1820243 C59.0642384,98.0545348 61.4790262,98.9398487 62.4489594,97.8379659 C63.4188925,96.736083 62.6279363,94.5155021 60.0760906,91.1762231 C59.6987366,89.8091616 60.7495137,89.1256309 63.2284217,89.1256309 C64.5416273,89.1256309 64.1787629,84.433103 60.0760906,84.2286208 C59.5209354,84.2009512 58.2948518,84.5992023 56.3978398,85.4233742 C53.4199138,82.0052374 51.3928288,80.296169 50.3165849,80.296169 C49.2403409,80.296169 48.460299,82.0052374 47.9764593,85.4233742 C44.1838409,87.8729266 42.3383407,89.4156794 42.4399587,90.0516324 C42.7048021,91.7090929 47.9764593,91.7090929 47.9764593,91.7090929 Z" id="Path-106" fill="url(#linearGradient-7)"></path>
                    <g id="Group-9" transform="translate(145.138779, 55.223454)">
                        <path d="M6.05187398,9.48105789 C2.826219,3.79987669 2.4034486,1.13637686 4.78356279,1.49055842 C7.16367698,1.84473997 9.2678138,2.76703265 11.0959733,4.25743645 C12.21852,1.05150581 13.6368857,-0.290693627 15.3510705,0.230838138 C17.0652553,0.752369903 17.9231713,4.04408387 17.9248184,10.10598 C22.9073217,10.907426 24.9931099,12.6647767 24.182183,15.3780321 C23.3712561,18.0912875 20.4162344,18.1811893 15.3171177,15.6477374 C14.5762171,21.8980151 13.2461504,24.9374993 11.3269175,24.7661899 C9.40768466,24.5948805 8.02437743,22.3063017 7.17699583,17.9004534 C3.54641703,18.4090148 1.28129006,17.5017513 0.381614945,15.1786627 C-0.518060175,12.8555742 1.37202617,10.9563725 6.05187398,9.48105789 Z" id="Path-104-Copy" fill="url(#radialGradient-8)"></path>
                        <path d="M10.3538456,9.04420537 C11.061204,8.90644237 11.3206674,9.96567253 13.044248,10.9317427 C14.7678286,11.8978128 16.5286218,11.090076 16.834874,11.9238793 C17.1411262,12.7576826 15.0676238,13.3257377 14.2960536,14.3399129 C13.5244835,15.3540882 13.6213228,16.6072956 13.1599422,16.7543211 C12.6985616,16.9013466 13.3540173,15.7805661 12.0120559,15.0677415 C10.6700945,14.3549168 9.35960381,15.450096 8.93179421,14.5084085 C8.50398462,13.566721 10.0882927,12.5339545 10.3697063,11.4526284 C10.65112,10.3713023 9.64648721,9.18196838 10.3538456,9.04420537 Z" id="Path-103-Copy" fill="#F4D1DE"></path>
                    </g>
                    <path d="M51.3174261,92.2355845 C52.1706368,93.2886067 52.2969632,89.1921351 53.4216849,89.1921351 C54.5464066,89.1921351 56.950128,88.6324799 55.5949067,87.7824394 C54.2396854,86.9323989 53.7116936,86.7880407 53.0565833,86.5743498 C52.4014729,86.360659 51.813908,87.1920271 51.3174261,89.1921351 C50.8209441,91.192243 50.4642153,91.1825624 51.3174261,92.2355845 Z" id="Path-105" fill="url(#linearGradient-9)"></path>
                    <g id="Group-4" transform="translate(26.828683, 44.005029)">
                        <path d="M4.09000928,1.21679964 C5.51202033,-1.06334899 8.42028464,0.851671123 8.076709,2.98901696 C7.73313336,5.1263628 4.57670011,9.01449246 1.29043395,5.23982425 C-1.99583222,1.46515603 2.66799823,3.49694827 4.09000928,1.21679964 Z" id="Path-109" fill="url(#radialGradient-10)"></path>
                        <path d="M4.75169527,4.98398357 C6.55501864,4.74941967 7.92117959,2.13100028 7.62071874,4.00013381 C7.3202579,5.86926733 6.01401454,9.76235904 2.52396997,6.55006811 C-0.966074603,3.33777718 2.94837191,5.21854747 4.75169527,4.98398357 Z" id="Path-109" fill="url(#radialGradient-11)"></path>
                    </g>
                    <g id="Group-4" transform="translate(58.408249, 7.524402) rotate(-80.000000) translate(-58.408249, -7.524402) translate(55.065010, 4.181163)">
                        <path d="M3.2712091,0.888258086 C4.44929426,-1.07740507 6.85868695,0.573489277 6.57404686,2.41604547 C6.28940676,4.25860165 3.674415,7.6104679 0.95186132,4.35641413 C-1.77069236,1.10236036 2.09312393,2.85392124 3.2712091,0.888258086 Z" id="Path-109" fill="url(#radialGradient-12)"></path>
                        <path d="M4.05208066,4.11213113 C5.6289747,3.90320871 6.82359743,1.57102329 6.56086312,3.23583145 C6.29812881,4.90063961 5.15590029,8.36815583 2.10407353,5.50701827 C-0.947753231,2.6458807 2.47518661,4.32105355 4.05208066,4.11213113 Z" id="Path-109" fill="url(#radialGradient-13)"></path>
                    </g>
                    <g id="Group-4-Copy" transform="translate(68.998609, 14.797161) rotate(-275.000000) translate(-68.998609, -14.797161) translate(64.986722, 10.562391)">
                        <path d="M3.88436028,1.28124893 C4.00596535,-1.28828279 8.14427033,0.904174302 7.80627766,3.11144889 C7.468285,5.31872349 4.36314257,9.33406329 1.13027697,5.43589712 C-2.10258863,1.53773094 3.76275521,3.85078065 3.88436028,1.28124893 Z" id="Path-109" fill="url(#radialGradient-14)"></path>
                        <path d="M4.81159739,5.14326036 C6.13448013,4.90802376 8.03695605,1.27639278 7.79062278,4.09350457 C7.54428951,6.91061637 6.79759776,10.6885854 2.49845834,6.81425361 C-1.80068109,2.93992178 3.48871466,5.37849697 4.81159739,5.14326036 Z" id="Path-109" fill="url(#radialGradient-15)"></path>
                    </g>
                    <path d="M83.0215621,101.64252 C78.0280141,107.159511 76.7796271,110.898771 79.2764011,112.860301 C81.7731751,114.821831 85.5370464,113.412701 90.568015,108.632911 C94.7297052,113.945279 98.0633398,115.920224 100.568919,114.557745 C103.074497,113.195265 102.306675,108.76125 98.265451,101.2557 C105.995705,98.4730783 109.645013,95.9652551 109.213376,93.7322303 C108.781738,91.4992055 105.13243,91.158351 98.265451,92.7096669 C94.7775316,85.7855167 91.8059963,82.7182704 89.3508452,83.5079278 C86.8956941,84.2975853 85.8659635,86.9561343 86.2616533,91.4835748 C83.0410857,92.0311499 79.8353899,93.0676078 76.6445658,94.5929483 C73.4537418,96.1182889 75.5794072,98.4681461 83.0215621,101.64252 Z" id="Path-104" fill="url(#radialGradient-16)"></path>
                    <path d="M87.2759424,96.8957462 C88.0809645,96.1606676 89.0305146,97.1776617 91.7595162,96.8957462 C94.4885178,96.6138308 96.2183905,94.2451481 97.0936608,94.9627313 C97.968931,95.6803146 95.7059638,98.0254728 95.3371825,99.828867 C94.9684012,101.632261 95.8285613,103.006424 95.3371825,103.552165 C94.8458037,104.097905 95.0062573,102.265363 92.9046831,102.530477 C90.8031089,102.795592 89.8068768,105.131253 88.7157055,104.387466 C87.6245341,103.643679 89.0006241,101.157656 88.7157055,99.6750989 C88.4307868,98.1925419 86.4709204,97.6308249 87.2759424,96.8957462 Z" id="Path-103" fill="#F2D1DE"></path>
                    <path d="M45.3426342,58.7513649 C46.6774384,58.9213728 49.4175631,62.3544552 49.3403826,63.3792917 C49.2632021,64.4041281 45.6491789,67.6288714 44.7849367,67.9000656 C43.9206945,68.1712597 44.6328718,66.5151347 43.6529557,64.8159783 C42.6730396,63.1168219 41.0844948,62.8910149 41.3782242,61.9928891 C41.6719536,61.0947633 44.2274916,61.3547608 44.7849367,61.3547608 C45.3423818,61.3547608 44.0078299,58.5813569 45.3426342,58.7513649 Z" id="Path-107" fill="url(#linearGradient-17)"></path>
                    <path d="M155.952906,94.2550572 C156.35743,93.4484884 159.180922,92.5530286 159.82618,92.8547315 C160.471437,93.1564344 161.757614,96.2486807 161.74209,96.864898 C161.726567,97.4811153 160.813518,96.6201464 159.499132,96.8241624 C158.184745,97.0281783 157.688148,97.9822838 157.17258,97.5741665 C156.657012,97.1660493 157.389168,95.6056953 157.512224,95.2513508 C157.63528,94.8970063 155.548381,95.0616261 155.952906,94.2550572 Z" id="Path-107-Copy" fill="url(#linearGradient-18)"></path>
                    <path d="M7.90520773,76.1561794 C7.2928355,79.1897026 7.2928355,80.7064643 7.90520773,80.7064643 C8.32601892,80.7064643 10.1310121,80.6220379 11.3620281,79.1895502 C11.7356157,78.7548202 12.053584,77.7436966 12.3159332,76.1561794 C15.0598768,73.6552757 16.752407,71.985466 17.3935239,71.1467502 C18.0346407,70.3080344 17.0370093,69.5999582 14.4006295,69.0225217 C13.9166932,65.9129805 13.2217944,64.1764028 12.3159332,63.8127885 C11.4100721,63.4491742 9.93983024,64.6831627 7.90520773,67.514754 C5.1301834,65.4159827 3.21307946,64.8621742 2.15389592,65.8533283 C1.09471237,66.8444825 1.62430414,69.1232835 3.74267124,72.6897312 C1.69073165,73.5537518 0.501892578,75.1058791 0.176154025,77.3461132 C-0.149584529,79.5863472 2.42676671,79.1897026 7.90520773,76.1561794 Z" id="Path-111" fill="url(#radialGradient-19)"></path>
                    <path d="M9.727572,69.7451137 L8.69365348,71.8889158 C10.0993617,73.6681417 10.9504347,74.3094802 11.2468727,73.8129312 C11.5433106,73.3163822 11.036877,71.9604431 9.727572,69.7451137 Z" id="Path-110" fill="url(#linearGradient-20)"></path>
                    <g id="Group-5" transform="translate(21.111095, 70.408047)">
                        <path d="M4.59322836,0.231880512 C2.67444479,0.544455926 -0.2223408,9.05982603 0.0135498761,10.4344908 C0.145145976,11.2013737 2.78276042,12.8359834 3.72823426,12.499878 C4.82269185,12.1108104 5.56713675,10.3411032 6.79006671,9.95168328 C7.92224591,9.59116129 9.4304929,10.5049104 10.4250385,9.95168328 C10.7649403,9.7626091 10.4668129,7.84943329 11.2340729,7.24000268 C11.9309218,6.68649911 13.7099592,7.43427621 13.7845997,7.24000268 C14.4158751,5.59692534 6.51201192,-0.0806949014 4.59322836,0.231880512 Z" id="Path-112" fill="url(#linearGradient-21)"></path>
                        <path d="M4.52964412,0.22888999 C2.4810907,0.665188906 0.642545206,6.4490664 0.826482135,7.52096811 C0.929094849,8.11894886 3.39105411,10.0567687 4.12829205,9.79468879 C4.9817008,9.49131146 5.56218542,8.11137343 6.51577114,7.8077213 C7.39859351,7.52660248 9.10960158,7.95234969 9.88510346,7.52096811 C10.1326462,7.38326972 9.76339154,5.30421995 10.854418,5.3759379 C11.9454445,5.44765585 11.8456522,4.44727854 11.6011689,4.20233249 C10.6611573,3.26054202 6.57819755,-0.207408925 4.52964412,0.22888999 Z" id="Path-112" fill="url(#linearGradient-22)"></path>
                    </g>
                    <path d="M75.4266333,35.03067 C74.2805056,32.5513882 73.0256913,31.5343042 72.9838323,29.7506787 C72.9592036,28.7012434 74.2073772,23.5765509 75.4266333,23.5405215 C76.6534183,23.5042696 79.6954493,26.1883894 80.0847026,27.3025096 C80.5620829,28.6688667 80.3520231,30.2634048 80.0847026,32.1315098 C79.8214199,33.9713976 87.7382453,28.7708566 90.6502762,31.4672924 C92.5916302,33.2649163 91.1228299,36.4579052 86.2438753,41.0462591 C89.8472706,43.5110223 90.7047671,45.7615235 88.8163648,47.7977627 C86.9279625,49.834002 84.2675923,49.6317428 80.8352543,47.1909854 C77.229507,49.9021873 74.9783071,50.9189626 74.0816547,50.2413114 C73.1850023,49.5636602 73.0403089,46.9678453 73.6475746,42.4538668 C67.9909876,37.8659627 65.612475,34.7464056 66.5120368,33.0951955 C67.8613793,30.6183803 75.2870967,36.4515281 75.4266333,35.03067 Z" id="Path-114" fill="url(#linearGradient-3)"></path>
                    <path d="M74.3286473,40.3956223 C74.7263497,42.0126837 79.8058623,42.8297581 81.0447852,42.3520151 C82.2837082,41.8742722 83.8463759,37.5182783 83.1589493,36.6477459 C82.4715228,35.7772134 79.7895157,40.7903536 78.7437983,40.3956223 C77.6980809,40.0008911 79.8717211,34.7868925 78.7437983,34.9811407 C77.6158755,35.1753889 73.9309448,38.778561 74.3286473,40.3956223 Z" id="Path-113" fill="url(#linearGradient-4)"></path>
                    <g id="Group-6" transform="translate(47.499964, 18.699280)">
                        <path d="M3.31193728,0.0283547981 C8.34770589,-0.327116867 15.2852991,2.62520309 16.6946684,10.8367612 C17.0810205,13.0878051 11.3489513,16.8698311 8.35823459,17.8762223 C6.20442656,18.6009895 2.64660933,18.5112393 3.31193728,17.8762223 C3.98159643,17.2370714 4.88584475,16.6582984 6.02468223,16.1399034 C2.00822741,13.9229299 -1.64120874e-16,12.1552158 0,10.8367612 C2.31700058e-16,8.85907925 3.24123375,7.78924427 4.32675134,6.08542428 C5.41226892,4.38160428 -1.72383132,0.383826463 3.31193728,0.0283547981 Z" id="Path-115" fill="url(#linearGradient-23)"></path>
                        <path d="M9.70734229,15.6224502 C7.34714297,14.4532174 6.02971001,13.141684 5.7550434,11.68785 C5.34304348,9.50709909 8.45644122,7.82566116 8.89524695,6.6152495 C9.33405269,5.40483783 5.28119414,2.37118643 7.09202963,0.688958123 C8.90286511,-0.993270181 18.0850275,6.23871085 17.1213309,10.7434545 C16.4788665,13.746617 14.0075369,15.3729488 9.70734229,15.6224502 Z" id="Path-116" fill="#FAEAF2"></path>
                        <path d="M10.170576,8.0860327 C9.80561875,8.6328763 12.8543344,9.85746075 12.6055935,10.2476708 C12.3568526,10.6378808 10.07961,9.49623073 9.85020883,9.8748478 C9.69727471,10.1272592 10.2706682,10.821054 11.5703892,11.9562321 C10.880253,14.8292778 10.880253,16.2064592 11.5703892,16.0877764 C12.6055935,15.9097522 16.7330177,13.9099514 17.1227681,10.5804423 C17.5125184,7.25093331 14.1823821,4.81806426 13.5813976,4.42202877 C13.1328375,4.12643758 14.0526018,6.95359365 14.1272452,8.0860327 C14.1526097,8.4708447 10.5355332,7.53918909 10.170576,8.0860327 Z" id="Path-117" fill="#FCDDE8"></path>
                    </g>
                    <g id="Group-6-Copy" transform="translate(174.581964, 102.613277) rotate(190.000000) translate(-174.581964, -102.613277) translate(169.232782, 96.818329)">
                        <path d="M2.09171177,0.0176440604 C5.27213928,-0.203551785 9.65369732,1.63355922 10.5438091,6.74328444 C10.7878165,8.14401936 7.16762815,10.4974233 5.27878886,11.1236604 C3.91851383,11.5746542 1.6715123,11.5188062 2.09171177,11.1236604 C2.51464669,10.7259423 3.08574048,10.365795 3.80499316,10.0432184 C1.26833105,8.66368418 -1.03653401e-16,7.56370619 0,6.74328444 C1.46334213e-16,5.51265182 2.04705772,4.84693617 2.73263529,3.78671691 C3.41821285,2.72649766 -1.08871574,0.238839905 2.09171177,0.0176440604 Z" id="Path-115" fill="url(#linearGradient-23)"></path>
                        <path d="M5.96535692,9.68110641 C4.51789109,8.96943065 3.70993425,8.17114094 3.54148638,7.28623729 C3.28881459,5.9588818 5.19820283,4.93544266 5.46731413,4.19870261 C5.73642543,3.46196255 3.25088355,1.61547299 4.36143488,0.591552772 C5.4719862,-0.432367445 11.1032336,3.96951521 10.5122166,6.71141302 C10.1182053,8.5393449 8.60258537,9.5292427 5.96535692,9.68110641 Z" id="Path-116" fill="#FAEAF2"></path>
                        <path d="M6.36416751,4.85924738 C6.14513617,5.18848532 7.97484158,5.92577045 7.8255582,6.16070408 C7.67627482,6.39563771 6.30957372,5.70828482 6.17189718,5.93623867 C6.08011283,6.0882079 6.42423843,6.50592069 7.20427401,7.18937701 C6.79008454,8.91915059 6.79008454,9.74830973 7.20427401,9.67685443 C7.8255582,9.56967149 10.3026573,8.36565207 10.5365683,6.36105573 C10.7704794,4.35645939 8.77187763,2.89170276 8.41119308,2.65326181 C8.14198697,2.47529533 8.69398915,4.1774402 8.73878688,4.85924738 C8.75400951,5.09093101 6.58319884,4.53000944 6.36416751,4.85924738 Z" id="Path-117" fill="#FCDDE8"></path>
                    </g>
                    <path d="M65.5967394,23.7693948 C64.648034,23.3093679 63.8884964,22.7777147 63.3181266,22.174435 C62.4625718,21.2695155 60.1163997,17.541109 61.0395137,18.9492212" id="Path-124" stroke="#C4C4C4" stroke-width="2"></path>
                </g>
            </g>
        </g>
    </g>
</svg>