<?xml version="1.0" encoding="UTF-8"?>
<svg width="300px" height="300px" viewBox="0 0 300 300" version="1.1" xmlns="http://www.w3.org/2000/svg" xmlns:xlink="http://www.w3.org/1999/xlink">
    <!-- Generator: Sketch 46.2 (44496) - http://www.bohemiancoding.com/sketch -->
    <title>Group 3</title>
    <desc>Created with Sketch.</desc>
    <defs>
        <circle id="path-1" cx="150" cy="150" r="150"></circle>
    </defs>
    <g id="Page-1" stroke="none" stroke-width="1" fill="none" fill-rule="evenodd">
        <g id="Artboard-8" transform="translate(-1838.000000, -1179.000000)">
            <g id="Group-3" transform="translate(1838.000000, 1179.000000)">
                <mask id="mask-2" fill="white">
                    <use xlink:href="#path-1"></use>
                </mask>
                <g id="Mask"></g>
                <g mask="url(#mask-2)">
                    <circle id="Oval-6" stroke="#979797" fill="#2C6BDC" cx="150" cy="150" r="150"></circle>
                    <g id="CSC-Logo" transform="translate(61.000000, 54.000000)">
                        <g id="Page-1">
                            <polygon id="Fill-1" fill="#A4E8D5" fill-rule="nonzero" points="31.7645799 38.0290494 68.3268173 38.0290494 77.6818091 192.119581 23.8592314 192.119581"></polygon>
                            <polygon id="Stroke-2" stroke="#F7F7FF" stroke-width="2" points="68.3268173 38.0290494 77.6818091 192.119581 23.8592314 192.119581 31.7645799 38.0290494"></polygon>
                            <path d="M43.6227016,0.000296327944 L43.6227016,38.5229293 L43.6227016,0.000296327944 Z" id="Fill-4" fill="#FFFFFF" fill-rule="nonzero"></path>
                            <polygon id="Rectangle" fill="#A4E8D5" fill-rule="nonzero" transform="translate(102.604837, 139.438761) scale(-1, 1) translate(-102.604837, -139.438761) " points="88.7704768 112.933873 116.439197 87.5813706 116.439197 191.296152 88.7704768 191.296152"></polygon>
                            <path d="M42.1401524,0.000296327944 L42.1401524,38.5229293 L42.1401524,0.000296327944 Z" id="Fill-5" fill="#000000" fill-rule="nonzero"></path>
                            <path d="M42,0.000296327944 L42,38.5229293" id="Stroke-6" stroke="#F7F7FF" stroke-width="2"></path>
                            <path d="M57.9510472,0.000296327944 L57.9510472,38.5229293 L57.9510472,0.000296327944 Z" id="Fill-8" fill="#000000" fill-rule="nonzero"></path>
                            <polygon id="Rectangle" fill="#A4E8D5" fill-rule="nonzero" points="117.59206 112.933873 145.26078 87.5813706 145.26078 191.296152 117.59206 191.296152"></polygon>
                            <path d="M57,0.000296327944 L57,38.5229293" id="Stroke-9" stroke="#F7F7FF" stroke-width="2"></path>
                            <path d="M144.910079,191.626096 L144.910079,87.9113152 L144.910079,191.626096 Z" id="Fill-11" fill="#FFFFFF" fill-rule="nonzero"></path>
                            <path d="M145,191.625701 L145,87.9109202" id="Stroke-12" stroke="#F7F7FF" stroke-width="2"></path>
                            <path d="M88.5838776,191.626096 L88.5838776,87.9113152 L88.5838776,191.626096 Z" id="Fill-14" fill="#000000" fill-rule="nonzero"></path>
                            <path d="M87.8,87.9109202 L87.8,191.625701" id="Stroke-15" stroke="#F7F7FF" stroke-width="2"></path>
                            <path d="M0.00266805515,192.640427 L185.923621,191.481785 L0.00266805515,192.640427 Z" id="Fill-17" fill="#000000" fill-rule="nonzero"></path>
                            <path d="M185.92372,191.482278 L0.00276687201,192.640921" id="Stroke-18" stroke="#F7F7FF" stroke-width="2"></path>
                            <path d="M117.241458,191.626096 L117.241458,111.617551 L117.241458,191.626096 Z" id="Fill-20" fill="#000000" fill-rule="nonzero"></path>
                            <path d="M117,111.617156 L117,191.625701" id="Stroke-21" stroke="#F7F7FF" stroke-width="2"></path>
                            <polygon id="Fill-23" fill="#A4E8D5" fill-rule="nonzero" points="88.1937487 87.8622236 116.686601 113.558795 144.519358 87.8622236 116.356553 61.7132579"></polygon>
                            <polygon id="Stroke-24" stroke="#F7F7FF" stroke-width="2" points="116.686601 113.558795 144.519358 87.8622236 116.356553 61.7132579 88.1937487 87.8622236"></polygon>
                            <g id="Group-29" transform="translate(53.413644, 157.486837)">
                                <path d="M10.7947961,32.6844539 C15.1358206,32.6617353 16.2850607,30.0254044 23.1696311,26.728262 C27.1015538,24.8455919 29.6648631,23.6187942 33.2529033,23.5219938 C38.2836694,23.3866706 42.4497882,25.5528278 44.7107179,26.728262 C48.9143871,28.9151624 49.3205242,30.3780347 53.4184593,31.7678128 C55.9185257,32.6162983 58.7585222,33.5803519 61.2101684,32.2261332 C63.6361224,30.886731 64.3357458,28.0232153 64.8762738,25.8126087 C65.134186,24.7596568 66.0867803,20.6318085 64.4177637,16.1918281 C62.4068406,10.8411332 57.8247029,8.32530892 52.9599491,5.65440635 C48.5863149,3.25316223 42.1424678,-0.284005673 33.2529033,0.157522964 C26.1282079,0.51015322 21.310886,3.22649272 15.3779219,6.57104747 C8.1405753,10.6514833 5.57034885,14.2005043 4.37861754,16.1918281 C2.25899595,19.7299838 2.08804279,22.3544617 2.08705462,23.5219938 C2.08507828,24.9038697 2.08112561,28.1012482 4.37861754,30.3938388 C6.69488467,32.7061845 9.9390421,32.6893926 10.7947961,32.6844539" id="Fill-25" fill="#A4E8D5" fill-rule="nonzero"></path>
                                <path d="M8.79479609,32.6844539 C13.1358206,32.6617353 14.2850607,30.0254044 21.1696311,26.728262 C25.1015538,24.8455919 27.6648631,23.6187942 31.2529033,23.5219938 C36.2836694,23.3866706 40.4497882,25.5528278 42.7107179,26.728262 C46.9143871,28.9151624 47.3205242,30.3780347 51.4184593,31.7678128 C53.9185257,32.6162983 56.7585222,33.5803519 59.2101684,32.2261332 C61.6361224,30.886731 62.3357458,28.0232153 62.8762738,25.8126087 C63.134186,24.7596568 64.0867803,20.6318085 62.4177637,16.1918281 C60.4068406,10.8411332 55.8247029,8.32530892 50.9599491,5.65440635 C46.5863149,3.25316223 40.1424678,-0.284005673 31.2529033,0.157522964 C24.1282079,0.51015322 19.310886,3.22649272 13.3779219,6.57104747 C6.1405753,10.6514833 3.57034885,14.2005043 2.37861754,16.1918281 C0.258995953,19.7299838 0.0880427877,22.3544617 0.0870546201,23.5219938 C0.0850782826,24.9038697 0.0811256077,28.1012482 2.37861754,30.3938388 C4.69488467,32.7061845 7.9390421,32.6893926 8.79479609,32.6844539 L8.79479609,32.6844539 Z" id="Stroke-27" stroke="#F7F7FF" stroke-width="2"></path>
                            </g>
                        </g>
                    </g>
                </g>
            </g>
        </g>
    </g>
</svg>