<?xml version="1.0" encoding="UTF-8"?>
<svg width="302px" height="302px" viewBox="0 0 302 302" version="1.1" xmlns="http://www.w3.org/2000/svg" xmlns:xlink="http://www.w3.org/1999/xlink">
    <!-- Generator: Sketch 46.2 (44496) - http://www.bohemiancoding.com/sketch -->
    <title>Group 3 Copy</title>
    <desc>Created with Sketch.</desc>
    <defs></defs>
    <g id="Page-1" stroke="none" stroke-width="1" fill="none" fill-rule="evenodd">
        <g id="Artboard-8" transform="translate(-2608.000000, -1737.000000)">
            <g id="Group-3-Copy" transform="translate(2609.000000, 1738.000000)">
                <g id="Group-3">
                    <circle id="Oval-6" stroke="#FFFFFF" stroke-width="2" fill="#769EE8" cx="150" cy="150" r="150"></circle>
                    <g id="CSC-Logo" transform="translate(70.000000, 54.000000)">
                        <g id="Page-1">
                            <polygon id="Fill-1" fill="#A4E8D5" fill-rule="nonzero" points="31.0814707 37.2112204 66.8574233 37.2112204 76.0112326 187.987977 23.3461297 187.987977"></polygon>
                            <polygon id="Stroke-2" stroke="#F7F7FF" stroke-width="2" points="66.8574233 37.2112204 76.0112326 187.987977 23.3461297 187.987977 31.0814707 37.2112204"></polygon>
                            <path d="M42.684579,0.0002899553 L42.684579,37.6944792 L42.684579,0.0002899553 Z" id="Fill-4" fill="#FFFFFF" fill-rule="nonzero"></path>
                            <polygon id="Rectangle" fill="#A4E8D5" fill-rule="nonzero" transform="translate(100.398281, 136.440078) scale(-1, 1) translate(-100.398281, -136.440078) " points="86.8614343 110.505187 113.935128 85.6979003 113.935128 187.182256 86.8614343 187.182256"></polygon>
                            <path d="M41.2339125,0.0002899553 L41.2339125,37.6944792 L41.2339125,0.0002899553 Z" id="Fill-5" fill="#000000" fill-rule="nonzero"></path>
                            <path d="M41.0967742,0.0002899553 L41.0967742,37.6944792" id="Stroke-6" stroke="#F7F7FF" stroke-width="2"></path>
                            <path d="M56.7047882,0.0002899553 L56.7047882,37.6944792 L56.7047882,0.0002899553 Z" id="Fill-8" fill="#000000" fill-rule="nonzero"></path>
                            <polygon id="Rectangle" fill="#A4E8D5" fill-rule="nonzero" points="115.063199 110.505187 142.136893 85.6979003 142.136893 187.182256 115.063199 187.182256"></polygon>
                            <path d="M55.7741935,0.0002899553 L55.7741935,37.6944792" id="Stroke-9" stroke="#F7F7FF" stroke-width="2"></path>
                            <path d="M141.793733,187.505105 L141.793733,86.0207493 L141.793733,187.505105 Z" id="Fill-11" fill="#FFFFFF" fill-rule="nonzero"></path>
                            <path d="M141.88172,187.504718 L141.88172,86.0203628" id="Stroke-12" stroke="#F7F7FF" stroke-width="2"></path>
                            <path d="M86.678848,187.505105 L86.678848,86.0207493 L86.678848,187.505105 Z" id="Fill-14" fill="#000000" fill-rule="nonzero"></path>
                            <path d="M85.911828,86.0203628 L85.911828,187.504718" id="Stroke-15" stroke="#F7F7FF" stroke-width="2"></path>
                            <path d="M0.00261067762,188.497622 L181.925263,187.363897 L0.00261067762,188.497622 Z" id="Fill-17" fill="#000000" fill-rule="nonzero"></path>
                            <path d="M162.92536,187.36438 L0.998511599,188.373493" id="Stroke-18" stroke="#F7F7FF" stroke-width="2"></path>
                            <path d="M114.720136,187.505105 L114.720136,109.217173 L114.720136,187.505105 Z" id="Fill-20" fill="#000000" fill-rule="nonzero"></path>
                            <path d="M114.483871,109.216787 L114.483871,187.504718" id="Stroke-21" stroke="#F7F7FF" stroke-width="2"></path>
                            <polygon id="Fill-23" fill="#A4E8D5" fill-rule="nonzero" points="86.2971089 85.9727134 114.177212 111.116671 141.411414 85.9727134 113.854262 60.3860911"></polygon>
                            <polygon id="Stroke-24" stroke="#F7F7FF" stroke-width="2" points="114.177212 111.116671 141.411414 85.9727134 113.854262 60.3860911 86.2971089 85.9727134"></polygon>
                            <g id="Group-29" transform="translate(52.264963, 154.100023)">
                                <path d="M10.5626499,31.9815624 C14.8103191,31.9593324 15.9348443,29.3796968 22.6713595,26.1534607 C26.5187247,24.3112781 29.0269091,23.1108632 32.5377871,23.0161444 C37.4603647,22.8837315 41.5368896,25.0033046 43.7491971,26.1534607 C47.8624648,28.2933309 48.2598678,29.7247436 52.2696752,31.084634 C54.7159768,31.9148725 57.4948981,32.8581938 59.8938207,31.5330981 C62.2676036,30.2225003 62.9521814,27.4205655 63.4810852,25.2574988 C63.7334508,24.2271911 64.6655593,20.1881137 63.0324355,15.8436167 C61.064758,10.6079905 56.5811609,8.14627001 51.8210255,5.53280621 C47.5414479,3.18320176 41.2361782,-0.277898024 32.5377871,0.154135374 C25.5663109,0.499182183 20.8525874,3.15710578 15.0472139,6.42973462 C7.96550916,10.4224191 5.4505564,13.8951171 4.28445372,15.8436167 C2.21041539,19.3056831 2.04313864,21.8737206 2.04217173,23.0161444 C2.04023789,24.3683026 2.03637022,27.4969203 4.28445372,29.7402078 C6.55090866,32.0028257 9.72529926,31.9863949 10.5626499,31.9815624" id="Fill-25" fill="#A4E8D5" fill-rule="nonzero"></path>
                                <path d="M8.60566069,31.9815624 C12.8533299,31.9593324 13.9778551,29.3796968 20.7143703,26.1534607 C24.5617354,24.3112781 27.0699198,23.1108632 30.5807978,23.0161444 C35.5033754,22.8837315 39.5799003,25.0033046 41.7922078,26.1534607 C45.9054755,28.2933309 46.3028785,29.7247436 50.3126859,31.084634 C52.7589875,31.9148725 55.5379089,32.8581938 57.9368315,31.5330981 C60.3106144,30.2225003 60.9951921,27.4205655 61.5240959,25.2574988 C61.7764615,24.2271911 62.70857,20.1881137 61.0754462,15.8436167 C59.1077687,10.6079905 54.6241717,8.14627001 49.8640363,5.53280621 C45.5844587,3.18320176 39.279189,-0.277898024 30.5807978,0.154135374 C23.6093217,0.499182183 18.8955982,3.15710578 13.0902247,6.42973462 C6.00851991,10.4224191 3.49356716,13.8951171 2.32746447,15.8436167 C0.253426147,19.3056831 0.0861493944,21.8737206 0.0851824778,23.0161444 C0.0832486422,24.3683026 0.079380971,27.4969203 2.32746447,29.7402078 C4.59391941,32.0028257 7.76831001,31.9863949 8.60566069,31.9815624 L8.60566069,31.9815624 Z" id="Stroke-27" stroke="#F7F7FF" stroke-width="2"></path>
                            </g>
                        </g>
                    </g>
                </g>
            </g>
        </g>
    </g>
</svg>