<?xml version="1.0" encoding="UTF-8"?>
<svg width="300px" height="300px" viewBox="0 0 300 300" version="1.1" xmlns="http://www.w3.org/2000/svg" xmlns:xlink="http://www.w3.org/1999/xlink">
    <!-- Generator: Sketch 46.2 (44496) - http://www.bohemiancoding.com/sketch -->
    <title>Group</title>
    <desc>Created with Sketch.</desc>
    <defs></defs>
    <g id="Page-1" stroke="none" stroke-width="1" fill="none" fill-rule="evenodd">
        <g id="Artboard-8" transform="translate(-1082.000000, -1173.000000)">
            <g id="Group" transform="translate(1082.000000, 1173.000000)">
                <circle id="Oval-Copy" fill="#4A90E2" cx="150" cy="150" r="150"></circle>
                <g id="Page-1-Copy" transform="translate(89.588958, 19.779380)" stroke="#FFFFFF" stroke-width="0.5">
                    <path d="M74.034965,32.1634249 C74.4720819,36.8153438 74.1117504,40.7566245 73.6766331,43.551907 C72.8815843,47.3144358 72.2305081,50.3965158 69.7353825,53.1612118 C68.360044,54.6853697 65.9521019,56.3124092 61.1358177,59.5668854 C59.0258188,60.9929283 57.7232665,61.7921479 57.194567,63.4819492 C56.6086784,65.3540774 57.247357,67.4458718 58.2695626,68.8202753 C59.1793896,70.0433355 60.1220104,70.3325164 61.8524814,71.3112823 C64.9894849,73.0856929 67.2882478,75.1866235 68.3020551,76.2940908 C70.3820596,78.5654316 71.0135395,80.978185 71.8853737,84.4793389 C72.4172726,86.6164171 73.3470958,91.1412235 72.9603693,97.6473954 C72.5112547,105.193109 70.7147963,108.277572 72.9603693,111.171367 C74.1485434,112.703072 75.8522195,113.385507 76.5432881,113.662374 C78.9120377,114.611745 91.967279,116.692561 96.0182072,116.692561 L107.422669,116.692561 C111.837299,116.692561 112.121824,115.784501 113.676728,116.692561 C115.915502,117.999436 116.955707,125.324148 116.987701,125.762686 C117.214458,128.853107 106.295948,128.22481 105.215354,128.398398 C104.013982,128.591052 94.5554633,127.036988 89.0841036,125.762686 C81.7367006,124.051831 79.8430607,123.078229 76.1849562,123.271679 C73.8649973,123.394422 71.9969525,123.925116 70.8103781,124.339423 C69.7437809,128.4531 68.6603869,131.781461 67.8505409,134.100866 C65.7313439,140.170883 61.7209064,151.65748 58.9578318,154.454351 C58.7374737,154.677195 57.9668202,155.410475 57.9912156,156.374544 C58.0164108,157.368007 58.8734478,158.107246 59.3445582,158.486597 C62.322392,160.88505 86.6295303,178.721484 87.3752285,179.992039 C89.0841036,182.9037 87.1596695,187.565559 86.4086123,189.400348 C69.8173669,229.936511 68.3020551,230.458662 65.8515674,235.214158 C65.6820143,235.543199 63.3609946,239.530722 61.8576804,240.283069 C60.8714679,240.776424 59.529723,240.711279 58.7974623,240.080483 C57.3933292,238.870929 71.2742899,190.520526 71.0383348,189.421401 C69.4392899,181.98565 58.7974623,177.050782 52.6076768,172.702537 C46.4178913,168.354292 45.1712531,170.832056 45.1712531,172.702537 C45.1712531,182.333473 43.6091502,194.32238 40.2321923,207.658464 C35.9494066,224.572763 29.6462051,238.138443 24.1152567,247.983303 C20.4996025,254.419019 29.8521659,154.407876 38.040209,102.138438 C40.8516745,84.1893636 42.3033984,80.8109527 45.1604552,60.0407765 C47.2692542,44.7094248 51.4640566,29.7208795 53.8699992,14.4332227 C55.0093825,7.19059303 55.574875,2.82427999 57.9112308,2.2685602 C62.669926,1.13686207 72.5488476,16.3434847 74.034965,32.1634249 Z" id="Stroke-1"></path>
                    <path d="M125.728778,17.2303722 L94.6962789,228.518691" id="Stroke-3"></path>
                    <path d="M0.307183581,258.844785 L129.44263,234.981804" id="Stroke-5"></path>
                    <path d="M22.3340754,19.2560284 C23.8601852,20.0977512 26.5244786,21.3784093 30.0282124,22.0350246 C35.7247293,23.1027692 40.4830246,21.9285679 43.667619,20.9927024 C51.9116515,18.5708128 97.8761119,0.150628266 97.8761119,0.150628266" id="Stroke-7"></path>
                    <path d="M71.9354674,84.9597048 C63.8562036,78.1369434 56.3400327,73.959313 50.9458584,71.4218305 C42.4474743,67.4245408 38.025515,66.9383356 34.5901682,67.0896789 C34.5901682,67.0896789 29.2483839,67.3256314 23.9589896,69.7975715 C9.06702119,76.7565816 0.367885851,101.772714 0.367885851,122.911287 C0.367885851,128.03259 1.47154341,160.223641 15.4512058,160.223641 C29.4308681,160.223641 31.9824294,146.926897 32.3739549,144.859731" id="Stroke-9"></path>
                </g>
            </g>
        </g>
    </g>
</svg>