<?xml version="1.0" encoding="UTF-8"?>
<svg width="18px" height="18px" viewBox="0 0 18 18" version="1.1" xmlns="http://www.w3.org/2000/svg" xmlns:xlink="http://www.w3.org/1999/xlink">
    <!-- Generator: Sketch 46.2 (44496) - http://www.bohemiancoding.com/sketch -->
    <title>dribbble</title>
    <desc>Created with Sketch.</desc>
    <defs></defs>
    <g id="Page-1" stroke="none" stroke-width="1" fill="none" fill-rule="evenodd">
        <g id="Social-Media-Icons" transform="translate(-75.000000, -93.000000)" fill-rule="nonzero" fill="#353535">
            <g id="dribbble" transform="translate(75.000000, 93.000000)">
                <path d="M8.6085,6.6789 C7.3863,4.5063 6.0786,2.7342 5.9832,2.6037 C4.0113,3.5361 2.5398,5.3532 2.0799,7.542 C2.2653,7.5456 5.2137,7.5807 8.6085,6.6789 Z M9.4887,9.0549 C9.5805,9.0252 9.6741,8.9973 9.7668,8.9703 C9.5895,8.568 9.396,8.1648 9.1935,7.7679 C5.5521,8.8587 2.0583,8.7795 1.935,8.7759 C1.9323,8.8515 1.9287,8.9253 1.9287,9.0009 C1.9287,10.818 2.6154,12.4758 3.7431,13.7277 L3.7386,13.7223 C3.7386,13.7223 5.6736,10.2897 9.4887,9.0549 Z M4.6539,14.5746 L4.6539,14.571 C4.6017,14.5305 4.5459,14.4936 4.4937,14.4495 C4.5891,14.526 4.6539,14.5746 4.6539,14.5746 Z M7.3062,2.1348 C7.2999,2.1366 7.2927,2.1384 7.2927,2.1384 C7.2981,2.1366 7.3053,2.1366 7.3053,2.1366 L7.3062,2.1348 Z M13.6701,3.6936 C12.4245,2.5974 10.791,1.9287 9,1.9287 C8.4249,1.9287 7.8678,1.9989 7.3332,2.1276 C7.4412,2.2716 8.7687,4.0347 9.9774,6.2532 C12.6432,5.2551 13.6503,3.7224 13.6701,3.6936 Z M9,17.28 C4.428,17.28 0.7209,13.5729 0.7209,9.0009 C0.72,4.4271 4.4271,0.72 9,0.72 C13.5738,0.72 17.28,4.4271 17.28,9.0009 C17.28,13.5729 13.5738,17.28 9,17.28 Z M10.2024,10.1574 C6.0525,11.6037 4.6818,14.5116 4.6539,14.571 C5.8545,15.5079 7.3593,16.0704 8.9991,16.0704 C9.9783,16.0704 10.9116,15.8715 11.7594,15.5115 C11.655,14.8914 11.2437,12.7251 10.2483,10.1412 C10.2339,10.1466 10.2186,10.152 10.2024,10.1574 Z M10.521,7.308 C10.6866,7.6437 10.8432,7.9866 10.9917,8.3331 C11.0448,8.4546 11.0943,8.5779 11.1447,8.6985 C13.5864,8.3907 15.9912,8.9127 16.0704,8.9289 C16.0533,7.2522 15.453,5.7141 14.4621,4.5081 C14.4459,4.5288 13.311,6.1668 10.521,7.308 Z M11.5749,9.8145 C12.5028,12.3669 12.879,14.4423 12.951,14.8644 C14.5386,13.7925 15.6672,12.0924 15.9813,10.1214 C15.8409,10.0764 13.8609,9.4491 11.5749,9.8145 Z" id="Shape"></path>
            </g>
        </g>
    </g>
</svg>