<?xml version="1.0" encoding="UTF-8"?>
<svg width="20px" height="16px" viewBox="0 0 20 16" version="1.1" xmlns="http://www.w3.org/2000/svg" xmlns:xlink="http://www.w3.org/1999/xlink">
    <!-- Generator: Sketch 46.2 (44496) - http://www.bohemiancoding.com/sketch -->
    <title>twitter</title>
    <desc>Created with Sketch.</desc>
    <defs></defs>
    <g id="Page-1" stroke="none" stroke-width="1" fill="none" fill-rule="evenodd">
        <g id="Social-Media-Icons" transform="translate(-153.000000, -94.000000)" fill-rule="nonzero" fill="#353535">
            <g id="twitter" transform="translate(153.000000, 94.000000)">
                <path d="M17.618392,3.970432 C17.626926,4.143245 17.6301262,4.31819149 17.6301262,4.49100449 C17.6301262,9.81407158 13.5796882,15.9499998 6.17326437,15.9499998 C3.89789321,15.9499998 1.78253409,15.283283 0,14.1397303 C0.315757086,14.1770664 0.635781159,14.1962679 0.96007222,14.1962679 C2.84821425,14.1962679 4.58381148,13.5519528 5.96098174,12.4734716 C4.19978259,12.4404025 2.71167065,11.2776483 2.19963213,9.67752797 C2.44498392,9.72339809 2.69780294,9.74793327 2.95702244,9.74793327 C3.32505012,9.74793327 3.68134359,9.69992966 4.01843561,9.60818942 C2.1761637,9.2369615 0.788325967,7.61017246 0.788325967,5.65802561 C0.788325967,5.64095766 0.788325967,5.62495646 0.788325967,5.60788851 C1.33130014,5.90977789 1.95321359,6.09112486 2.61246318,6.1124598 C1.53184856,5.38920539 0.820328374,4.15817946 0.820328374,2.75967426 C0.820328374,2.02255214 1.0187433,1.3302334 1.36650279,0.734988621 C3.35171879,3.17250531 6.32047545,4.77475917 9.66686051,4.94330518 C9.5985887,4.64781629 9.56338605,4.34165993 9.56338605,4.02483609 C9.56338605,1.80173553 11.3651216,0 13.5892889,0 C14.747776,0 15.7942548,0.487503338 16.5292434,1.27049557 C17.445579,1.0891486 18.3075105,0.754190066 19.0862357,0.2933554 C18.7854131,1.23315943 18.1464317,2.02255214 17.3154359,2.52072295 C18.1304305,2.42258223 18.9048888,2.20816611 19.6281432,1.88707529 C19.0883692,2.69566944 18.4056512,3.40398939 17.618392,3.970432 Z" id="Shape"></path>
            </g>
        </g>
    </g>
</svg>