<?xml version="1.0" encoding="UTF-8"?>
<svg width="302px" height="302px" viewBox="0 0 302 302" version="1.1" xmlns="http://www.w3.org/2000/svg" xmlns:xlink="http://www.w3.org/1999/xlink">
    <!-- Generator: Sketch 46.2 (44496) - http://www.bohemiancoding.com/sketch -->
    <title>Group 2 Copy 3</title>
    <desc>Created with Sketch.</desc>
    <defs></defs>
    <g id="Page-1" stroke="none" stroke-width="1" fill="none" fill-rule="evenodd">
        <g id="Artboard-8" transform="translate(-1962.000000, -2070.000000)">
            <g id="Group-2-Copy-3" transform="translate(1963.000000, 2071.000000)">
                <g id="codepen">
                    <circle id="Oval" stroke="#FFFFFF" stroke-width="2" fill="#769EE8" cx="150" cy="150" r="150"></circle>
                    <g id="Codepen-logo-Copy" transform="translate(78.000000, 77.000000)" stroke="#B0F5C2" stroke-width="4">
                        <path d="M1.59343476,94.8412885 L73.0471788,49.6903904 L73.0471788,49.6903904 C73.7121818,49.2701817 74.5617522,49.2788226 75.2180707,49.7124705 L143.552103,94.8626602 L143.552103,94.8626602 C144.473679,95.4715708 144.727144,96.712275 144.118233,97.6338507 C143.980323,97.8425749 143.804478,98.0235727 143.599823,98.1674516 L75.2647276,146.209113 L75.2647276,146.209113 C74.5871097,146.685499 73.685954,146.694886 72.9985594,146.232719 L1.54587837,98.1917658 L1.54587837,98.1917658 C0.629230975,97.5754613 0.385755012,96.3327582 1.00205959,95.4161108 C1.1571099,95.1855 1.35851625,94.9897311 1.59343476,94.8412885 Z" id="Path-118"></path>
                        <path d="M1.59343476,45.8412885 L73.0471788,0.690390368 L73.0471788,0.690390368 C73.7121818,0.270181677 74.5617522,0.278822636 75.2180707,0.712470454 L143.552103,45.8626602 L143.552103,45.8626602 C144.473679,46.4715708 144.727144,47.712275 144.118233,48.6338507 C143.980323,48.8425749 143.804478,49.0235727 143.599823,49.1674516 L75.2647276,97.2091126 L75.2647276,97.2091126 C74.5871097,97.6854988 73.685954,97.6948858 72.9985594,97.2327186 L1.54587837,49.1917658 L1.54587837,49.1917658 C0.629230975,48.5754613 0.385755012,47.3327582 1.00205959,46.4161108 C1.1571099,46.1855 1.35851625,45.9897311 1.59343476,45.8412885 Z" id="Path-118"></path>
                        <path d="M74,98 L74,147" id="Path-126"></path>
                        <path d="M74,0 L74,49" id="Path-126"></path>
                        <path d="M144,48 L144,98" id="Path-126"></path>
                        <path d="M1,47 L1,98" id="Path-126"></path>
                    </g>
                </g>
            </g>
        </g>
    </g>
</svg>