<?xml version="1.0" encoding="UTF-8"?>
<svg width="302px" height="302px" viewBox="0 0 302 302" version="1.1" xmlns="http://www.w3.org/2000/svg" xmlns:xlink="http://www.w3.org/1999/xlink">
    <!-- Generator: Sketch 46.2 (44496) - http://www.bohemiancoding.com/sketch -->
    <title>potato copy</title>
    <desc>Created with Sketch.</desc>
    <defs>
        <radialGradient cx="37.1950686%" cy="39.4492259%" fx="37.1950686%" fy="39.4492259%" r="100.814527%" gradientTransform="translate(0.371951,0.394492),scale(1.000000,0.660000),rotate(-9.147934),scale(1.000000,0.589501),translate(-0.371951,-0.394492)" id="radialGradient-1">
            <stop stop-color="#F4D469" offset="0%"></stop>
            <stop stop-color="#EDCB5A" offset="100%"></stop>
        </radialGradient>
    </defs>
    <g id="Page-1" stroke="none" stroke-width="1" fill="none" fill-rule="evenodd">
        <g id="Artboard-8" transform="translate(-612.000000, -2448.000000)">
            <g id="potato-copy" transform="translate(613.000000, 2449.000000)">
                <circle id="Oval-8" stroke="#FFFFFF" stroke-width="2" fill="#769EE8" cx="150" cy="150" r="150"></circle>
                <g id="potato" transform="translate(149.643873, 149.776789) rotate(-2.000000) translate(-149.643873, -149.776789) translate(97.143873, 58.776789)">
                    <path d="M66.753865,3.19897564 C47.4871851,-6.26180989 14.1872739,16.6722121 6.98891344,36.4251028 C2.80387935,47.9091792 3.40715367,59.3197672 2.94646084,75.4856597 C2.66746237,85.2758251 -2.49886213,105.640421 1.53190054,119.628836 C5.87910598,134.715439 25.5490226,156.833888 54.8841022,155.975764 C105.460523,154.496278 99.2339925,125.979431 101.591342,92.795435 C105.033035,44.3473298 86.1565212,12.7265315 66.753865,3.19897564 Z" id="body-back" fill="#E3BF42"></path>
                    <path d="M59.5900629,0.0777802832 C43.7960558,-1.24491678 16.8672274,14.4879099 10.2937634,33.1107393 C6.31141155,44.3928669 9.35733831,61.1873923 8.88261953,77.723493 C8.66640555,85.2549753 5.0390212,99.8803224 6.24495834,111.048376 C7.34625616,121.247375 15.4408367,135.646814 28.1559222,143.252084 C39.0160588,149.747854 53.2148975,150.300433 69.6581286,149.901587 C107.679709,148.979338 102.058292,105.089991 104.425456,72.0118201 C107.881477,23.7182172 96.0939271,3.13486096 59.5900629,0.0777802832 Z" id="body" fill="url(#radialGradient-1)"></path>
                    <circle id="Oval-2" fill="#7A6B38" cx="44.9651005" cy="53.9993908" r="3"></circle>
                    <circle id="Oval-2" fill="#7A6B38" cx="84" cy="53" r="3"></circle>
                    <path d="M24.9429598,59.1368461 C26.2114648,59.8174691 26.1640908,61.1079066 25.7021892,61.6505273 C25.2402876,62.1931479 23.5068836,62.1223571 23.0946778,61.3081223 C22.6824721,60.4938876 23.6744549,58.456223 24.9429598,59.1368461 Z" id="Path-130" fill="#E0BD40"></path>
                    <path d="M18.9429598,72.1368461 C20.2114648,72.8174691 20.1640908,74.1079066 19.7021892,74.6505273 C19.2402876,75.1931479 17.5068836,75.1223571 17.0946778,74.3081223 C16.6824721,73.4938876 17.6744549,71.456223 18.9429598,72.1368461 Z" id="Path-130-Copy-3" fill="#E0BD40"></path>
                    <path d="M5.94295985,89.1368461 C7.21146478,89.8174691 7.16409082,91.1079066 6.70218921,91.6505273 C6.24028761,92.1931479 4.50688364,92.1223571 4.09467785,91.3081223 C3.68247206,90.4938876 4.67445491,88.456223 5.94295985,89.1368461 Z" id="Path-130-Copy-8" fill="#BE9D2C"></path>
                    <path d="M15.9429598,132.136846 C17.2114648,132.817469 17.1640908,134.107907 16.7021892,134.650527 C16.2402876,135.193148 14.5068836,135.122357 14.0946778,134.308122 C13.6824721,133.493888 14.6744549,131.456223 15.9429598,132.136846 Z" id="Path-130-Copy-8" fill="#BE9D2C"></path>
                    <path d="M24.9429598,109.136846 C26.2114648,109.817469 26.1640908,111.107907 25.7021892,111.650527 C25.2402876,112.193148 23.5068836,112.122357 23.0946778,111.308122 C22.6824721,110.493888 23.6744549,108.456223 24.9429598,109.136846 Z" id="Path-130-Copy-4" fill="#E0BD40"></path>
                    <path d="M80.0318999,19.1430116 C81.1645738,19.9428703 81.1584686,22.0122531 80.7460273,22.6499333 C80.3335859,23.2876136 78.4358037,23.0300181 78.0677368,22.0731408 C77.6996698,21.1162634 78.899226,18.3431529 80.0318999,19.1430116 Z" id="Path-130" fill="#E0BD40"></path>
                    <path d="M29.0318999,112.143012 C30.1645738,112.94287 30.1584686,115.012253 29.7460273,115.649933 C29.3335859,116.287614 27.4358037,116.030018 27.0677368,115.073141 C26.6996698,114.116263 27.899226,111.343153 29.0318999,112.143012 Z" id="Path-130" fill="#E0BD40"></path>
                    <path d="M83.1643191,112.058953 C84.1691865,112.492736 84.1542577,113.966782 83.7133755,114.497475 C83.2724933,115.028167 81.4581604,115.293811 81.0647126,114.497475 C80.6712648,113.701139 82.1594517,111.62517 83.1643191,112.058953 Z" id="Path-130-Copy" fill="#E0BD40"></path>
                    <path d="M94.1643191,100.058953 C95.1691865,100.492736 95.1542577,101.966782 94.7133755,102.497475 C94.2724933,103.028167 92.4581604,103.293811 92.0647126,102.497475 C91.6712648,101.701139 93.1594517,99.6251698 94.1643191,100.058953 Z" id="Path-130-Copy-7" fill="#E0BD40"></path>
                    <path d="M90.1643191,104.058953 C91.1691865,104.492736 91.1542577,105.966782 90.7133755,106.497475 C90.2724933,107.028167 88.4581604,107.293811 88.0647126,106.497475 C87.6712648,105.701139 89.1594517,103.62517 90.1643191,104.058953 Z" id="Path-130-Copy-7" fill="#E0BD40" transform="translate(89.500000, 105.500000) rotate(-50.000000) translate(-89.500000, -105.500000) "></path>
                    <path d="M32.1643191,106.058953 C33.1691865,106.492736 33.1542577,107.966782 32.7133755,108.497475 C32.2724933,109.028167 30.4581604,109.293811 30.0647126,108.497475 C29.6712648,107.701139 31.1594517,105.62517 32.1643191,106.058953 Z" id="Path-130-Copy-5" fill="#E0BD40"></path>
                    <path d="M26.1643191,32.058953 C27.1691865,32.4927362 27.1542577,33.9667825 26.7133755,34.4974748 C26.2724933,35.0281672 24.4581604,35.2938105 24.0647126,34.4974748 C23.6712648,33.7011392 25.1594517,31.6251698 26.1643191,32.058953 Z" id="Path-130-Copy-6" fill="#E0BD40"></path>
                    <path d="M70.1738565,132.087936 C72.8116197,132.707023 71.9392932,135.155487 71.5170967,135.715262 C71.0949002,136.275037 67.4630442,135.972242 67.0862716,135.132266 C66.709499,134.29229 67.5360933,131.468848 70.1738565,132.087936 Z" id="Path-130" fill="#E0BD40"></path>
                    <path d="M56.1738565,12.0879357 C58.8116197,12.7070233 57.9392932,15.1554868 57.5170967,15.7152621 C57.0949002,16.2750374 53.4630442,15.9722424 53.0862716,15.132266 C52.709499,14.2922896 53.5360933,11.4688481 56.1738565,12.0879357 Z" id="Path-130-Copy-2" fill="#E0BD40"></path>
                    <path d="M41.6353823,70.9809945 C43.537808,72.6102847 50.0134929,72.0393872 51.4169504,70.9809945 C52.8204079,69.9226017 51.4169504,66.1374109 50.0813716,64.9992898 C48.7457928,63.8611687 44.0058571,62.0965401 39.8175956,63.5479149 C35.6293341,64.9992898 39.7329565,69.3517042 41.6353823,70.9809945 Z" id="cheeck" fill="#E2C046"></path>
                    <path d="M78.6491468,69.3007795 C80.6375108,71.0105131 88.4588443,71.5220775 89.9257001,70.4114285 C91.392556,69.3007795 91.3232245,63.5164166 89.9257001,62.1548728 C88.5281757,60.793329 81.478354,60.4464906 80.6375108,62.1548728 C79.7966675,63.8632551 76.6607829,67.5910459 78.6491468,69.3007795 Z" id="cheeck" fill="#E2C046" transform="translate(84.500000, 66.000000) scale(-1, 1) translate(-84.500000, -66.000000) "></path>
                    <g id="Smile" transform="translate(51.000000, 62.000000)" stroke="#7A6B38" stroke-width="4">
                        <path d="M20.4037407,16.3283156 C21.7871585,13.5256055 22.3764772,12.3793897 22.1716969,12.8896681 C20.4727457,17.1231707 16.757853,21.9458038 12.6777191,21.8694653 C6.64004953,21.7565018 4.31574759,15.7898996 3.66262064,12.2433169 C3.53399324,11.5448497 5.56994672,18.2800639 5.58222054,17.5509435" id="Path-128"></path>
                    </g>
                    <g id="left-leg" transform="translate(40.000000, 147.000000)" fill="#EDCB5A">
                        <rect x="1.2972973" y="0" width="5.62162162" height="27.8313253"></rect>
                        <path d="M14.3685407,27.8736115 C16.5072388,30.8578617 15.8597334,33.0577195 14.3685407,34.323288 C12.8773479,35.5888565 2.92296079,34.323288 1.8283432,32.464634 C0.733725602,30.60598 -0.325774218,27.5412344 0.0939410958,27.0556806 C0.51365641,26.5701268 12.2298425,24.8893614 14.3685407,27.8736115 Z" id="left-foot"></path>
                    </g>
                    <g id="right-leg" transform="translate(69.000000, 147.000000)" fill="#EDCB5A">
                        <rect x="1.68421053" y="0" width="5.47368421" height="27.8313253"></rect>
                        <path d="M14.4114738,27.0556806 C15.8769407,28.4252755 16.8838981,33.6000545 14.4114738,34.323288 C11.9390495,35.0465215 2.34021183,34.9417901 1.27439996,33.0831361 C0.208588091,31.2244821 0.103851419,27.5412344 0.512521593,27.0556806 C0.921191767,26.5701268 12.9460069,25.6860856 14.4114738,27.0556806 Z" id="right-foot"></path>
                    </g>
                </g>
            </g>
        </g>
    </g>
</svg>