<?xml version="1.0" encoding="UTF-8"?>
<svg width="302px" height="302px" viewBox="0 0 302 302" version="1.1" xmlns="http://www.w3.org/2000/svg" xmlns:xlink="http://www.w3.org/1999/xlink">
    <!-- Generator: Sketch 46.2 (44496) - http://www.bohemiancoding.com/sketch -->
    <title>Group Copy</title>
    <desc>Created with Sketch.</desc>
    <defs></defs>
    <g id="Page-1" stroke="none" stroke-width="1" fill="none" fill-rule="evenodd">
        <g id="Artboard-8" transform="translate(-2282.000000, -1737.000000)" stroke="#FFFFFF" stroke-width="2">
            <g id="Group-Copy" transform="translate(2283.000000, 1738.000000)">
                <circle id="Oval-Copy" fill="#769EE8" cx="150" cy="150" r="150"></circle>
                <g id="Page-1-Copy" transform="translate(97.000000, 45.000000)">
                    <path d="M59.9103501,26.0271893 C60.2640725,29.7916009 59.9724861,32.9809522 59.6203818,35.2429422 C58.9770148,38.2876444 58.4501529,40.7817158 56.431055,43.0189547 C55.3181077,44.2523291 53.3695601,45.5689571 49.4721411,48.2025345 C47.7646943,49.3565126 46.7106468,50.0032547 46.2828143,51.3706706 C45.8087033,52.8856285 46.3255328,54.5783441 47.1527189,55.6905347 C47.8889664,56.6802558 48.6517511,56.9142658 50.0520776,57.7062998 C52.5905941,59.1421829 54.450792,60.8422917 55.2711821,61.738473 C56.954357,63.5764805 57.4653613,65.5289215 58.1708643,68.3621146 C58.6012859,70.0914746 59.3537146,73.7530247 59.040769,79.0179294 C58.6773379,85.1240488 57.2236132,87.6200489 59.040769,89.9617566 C60.0022596,91.2012384 61.3809032,91.7534764 61.9401277,91.9775217 C63.85696,92.745769 74.4214828,94.4296004 77.6995627,94.4296004 L86.9282464,94.4296004 C90.5006401,94.4296004 90.7308825,93.6947831 91.9891375,94.4296004 C93.8007917,95.4871458 94.6425427,101.414427 94.6684328,101.769299 C94.8519283,104.270121 86.016485,103.761692 85.1420496,103.902162 C84.1698793,104.058062 76.5158855,102.800487 72.0883684,101.769299 C66.1427252,100.384847 64.6103596,99.5969918 61.6501594,99.7535343 C59.7728093,99.85286 58.2611558,100.282307 57.3009597,100.617571 C56.4378511,103.946429 55.5611503,106.639794 54.9058091,108.516696 C53.1909189,113.428657 49.9456049,122.723807 47.709678,124.987082 C47.5313605,125.167411 46.9077346,125.760794 46.9274758,126.540935 C46.9478641,127.344862 47.6413931,127.943066 48.0226236,128.250044 C50.4323373,130.190913 70.102086,144.624458 70.7055177,145.652613 C72.0883684,148.008778 70.5310837,151.781233 69.9233154,153.265975 C56.4973981,186.068527 55.2711821,186.49106 53.2882059,190.339289 C53.1510006,190.605554 51.272792,193.832325 50.0562847,194.441137 C49.2582248,194.840368 48.1724621,194.787652 47.5799043,194.277201 C46.443656,193.298409 57.6763649,154.172443 57.485426,153.283012 C56.1914518,147.265877 47.5799043,143.272497 42.5710248,139.753824 C37.5621453,136.23515 36.5533446,138.240199 36.5533446,139.753824 C36.5533446,147.547341 35.2892644,157.248968 32.5565727,168.040753 C29.0908699,181.728091 23.9902122,192.705669 19.514475,200.672297 C16.5886262,205.880187 24.1568793,124.949474 30.7827827,82.6521569 C33.0578682,68.1274617 34.2326279,65.3935943 36.5446067,48.5860153 C38.2510827,36.1796253 41.645588,24.0506401 43.5925175,11.6796088 C44.5145259,5.81874991 44.972132,2.2854553 46.8627507,1.83575741 C50.7135676,0.919968083 58.7077586,13.2254252 59.9103501,26.0271893 Z" id="Stroke-1"></path>
                    <path d="M101.741861,13.9431096 L76.6298359,184.921203" id="Stroke-3"></path>
                    <path d="M0.248578167,209.461593 L104.747173,190.151263" id="Stroke-5"></path>
                    <path d="M18.0731128,15.582305 C19.3080668,16.2634413 21.4640582,17.2997716 24.2993391,17.8311158 C28.9090572,18.6951529 32.7595505,17.7449693 35.3365784,16.987651 C42.0077894,15.0278169 79.2030107,0.121890949 79.2030107,0.121890949" id="Stroke-7"></path>
                    <path d="M58.211401,68.7508349 C51.6735236,63.2297406 45.5913106,59.8491311 41.2262532,57.7957572 C34.3492165,54.5610826 30.7708921,54.1676371 27.9909511,54.2901067 C27.9909511,54.2901067 23.6682886,54.4810435 19.388021,56.4813794 C7.33718742,62.1127284 0.297699474,82.356207 0.297699474,99.4618989 C0.297699474,103.606145 1.1907979,129.65569 12.5033779,129.65569 C23.8159579,129.65569 25.8807246,118.895738 26.1975537,117.222952" id="Stroke-9"></path>
                </g>
            </g>
        </g>
    </g>
</svg>