<svg xmlns="http://www.w3.org/2000/svg" width="1402" height="703" viewBox="0 0 1402 703">
  <defs>
    <filter id="a" width="200%" height="200%" x="-50%" y="-50%" filterUnits="objectBoundingBox">
      <feGaussianBlur in="SourceGraphic"/>
    </filter>
    <filter id="b" width="200%" height="200%" x="-50%" y="-50%" filterUnits="objectBoundingBox">
      <feGaussianBlur in="SourceGraphic"/>
    </filter>
    <filter id="c" width="200%" height="200%" x="-50%" y="-50%" filterUnits="objectBoundingBox">
      <feGaussianBlur in="SourceGraphic"/>
    </filter>
    <filter id="d" width="200%" height="200%" x="-50%" y="-50%" filterUnits="objectBoundingBox">
      <feGaussianBlur in="SourceGraphic"/>
    </filter>
    <filter id="e" width="200%" height="200%" x="-50%" y="-50%" filterUnits="objectBoundingBox">
      <feGaussianBlur in="SourceGraphic"/>
    </filter>
    <filter id="f" width="200%" height="200%" x="-50%" y="-50%" filterUnits="objectBoundingBox">
      <feGaussianBlur in="SourceGraphic"/>
    </filter>
    <filter id="g" width="200%" height="200%" x="-50%" y="-50%" filterUnits="objectBoundingBox">
      <feGaussianBlur in="SourceGraphic"/>
    </filter>
    <filter id="h" width="200%" height="200%" x="-50%" y="-50%" filterUnits="objectBoundingBox">
      <feGaussianBlur in="SourceGraphic"/>
    </filter>
  </defs>
  <g fill="#00C4FF" fill-opacity=".254" fill-rule="evenodd" transform="translate(31 17)">
    <path d="M145.092839,401.193283 C148.229841,400.02631 151.625489,399.388393 155.170588,399.388393 C171.092633,399.388393 184,412.256209 184,428.129464 C184,438.827245 178.137363,448.159929 169.440378,453.108506 C169.535874,453.770661 169.585294,454.447657 169.585294,455.136161 C169.585294,462.93595 163.242881,469.258929 155.419118,469.258929 C154.419843,469.258929 153.444733,469.155781 152.503918,468.959582 C147.924582,478.792799 137.931636,485.611607 126.341176,485.611607 C120.805307,485.611607 115.633868,484.056076 111.242651,481.359529 C106.660879,491.186527 96.6712183,498 85.0852941,498 C73.5769113,498 63.6434966,491.277423 59.0206536,481.556426 C58.1068761,481.616704 57.1849657,481.647321 56.2558824,481.647321 C33.4708877,481.647321 15,463.233033 15,440.517857 C15,417.802681 33.4708877,399.388393 56.2558824,399.388393 C57.6826428,399.388393 59.0924874,399.460597 60.4819402,399.601539 C62.8564676,395.337031 67.4195627,392.450893 72.6588235,392.450893 C77.7282597,392.450893 82.164654,395.152962 84.5979552,399.191247 C92.0749289,391.663286 102.448559,387 113.914706,387 C126.365702,387 137.528445,392.498767 145.092839,401.193283 Z" filter="url(#a)"/>
    <path d="M765.605539,15.3872318 C758.227245,6.0175315 746.772559,0 733.910483,0 C727.976331,0 722.341757,1.28089515 717.268875,3.58092795 C714.938063,1.60358453 711.919154,0.410646388 708.621239,0.410646388 C702.403002,0.410646388 697.176669,4.65169729 695.684464,10.3953143 C695.074463,10.3101764 694.451269,10.2661597 693.817779,10.2661597 C686.436916,10.2661597 680.453545,16.2413708 680.453545,23.6121673 C680.453545,24.1371397 680.483897,24.6550326 680.542944,25.1641915 C665.291105,27.9271636 653.725076,41.2573141 653.725076,57.2851711 C653.725076,75.3152732 668.361323,89.9315589 686.416049,89.9315589 C687.72361,89.9315589 689.013241,89.8548971 690.280682,89.7058288 C693.1294,94.975029 698.709029,98.5551331 705.125978,98.5551331 C709.216098,98.5551331 712.966041,97.1006432 715.885452,94.6813475 C718.336746,102.403676 725.571978,108 734.116087,108 C741.331536,108 747.613533,104.008868 750.86916,98.1166667 C753.984705,99.7096592 757.515139,100.608365 761.255763,100.608365 C770.243784,100.608365 778.018267,95.4196777 781.7395,87.8781419 C783.382157,88.411395 785.135481,88.6996198 786.956214,88.6996198 C796.267457,88.6996198 803.81571,81.1616611 803.81571,71.8631179 C803.81571,68.1108691 802.586574,64.6453089 800.508451,61.8460672 C802.597775,58.7188871 803.81571,54.9615576 803.81571,50.9201521 C803.81571,41.0100206 796.49222,32.808049 786.955017,31.4170453 C786.846257,22.2119139 779.340199,14.78327 770.096718,14.78327 C768.541489,14.78327 767.035443,14.9935643 765.605539,15.3872318 Z" filter="url(#b)"/>
    <path d="M173.178547,62.5171993 C187.784378,64.6510816 199,77.2333931 199,92.4361233 C199,98.6358794 197.134783,104.399846 193.93507,109.197126 C197.117629,113.491329 199,118.807704 199,124.563877 C199,138.828394 187.440162,150.39207 173.18038,150.39207 C170.392002,150.39207 167.70686,149.949917 165.191198,149.131875 C159.492284,160.701038 147.585985,168.660793 133.821203,168.660793 C128.092591,168.660793 122.685878,167.282125 117.91455,164.83838 C112.928692,173.877366 103.308073,180 92.2579114,180 C79.1729629,180 68.0925049,171.414906 64.3384488,159.568396 C59.8674913,163.279739 54.1246099,165.511013 47.8607595,165.511013 C33.600977,165.511013 22.0411392,153.947337 22.0411392,139.682819 C22.0411392,139.319494 22.0486387,138.957922 22.0634911,138.598247 C8.97903147,132.02364 2.84217094e-14,118.475949 2.84217094e-14,102.830396 C2.84217094e-14,87.9099175 8.16607233,74.8973603 20.2712801,68.0210652 C19.7831123,66.2685958 19.5221519,64.4213912 19.5221519,62.5132159 C19.5221519,51.2059763 28.6854379,42.0396476 39.9889241,42.0396476 C44.3177283,42.0396476 48.3326513,43.3839795 51.6392405,45.67806 C54.9458297,43.3839795 58.9607527,42.0396476 63.289557,42.0396476 C68.3659736,42.0396476 73.010728,43.8884272 76.5876657,46.9496207 C80.1655035,40.9887669 86.6906691,37 94.1471519,37 C99.4909969,37 104.356501,39.0486998 108.001582,42.4037702 C111.646666,39.0486988 116.512169,37 121.856013,37 C126.313441,37 130.438059,38.4254088 133.799195,40.8454141 C137.740404,38.40722 142.3863,37 147.360759,37 C161.516765,37 173.011981,48.3959771 173.178546,62.5171921 Z" filter="url(#c)" transform="matrix(1 0 0 -1 0 217)"/>
    <path d="M1241.31906,157.115649 C1241.57514,157.121527 1241.83194,157.124482 1242.08943,157.124482 C1260.26544,157.124482 1275,142.40114 1275,124.238978 C1275,107.612724 1262.65216,93.8682669 1246.62001,91.6625302 C1245.03994,80.9710724 1235.81901,72.7660151 1224.68022,72.7660151 C1221.9473,72.7660151 1219.32983,73.2599379 1216.91234,74.1633218 C1212.03418,70.3041726 1205.86768,68 1199.1626,68 C1191.25073,68 1184.08876,71.2082294 1178.90851,76.3937943 C1174.40028,74.0749869 1169.28672,72.7660151 1163.86721,72.7660151 C1150.41432,72.7660151 1138.8467,80.8316926 1133.74331,92.3875871 C1132.98038,92.333949 1132.21018,92.3066768 1131.4336,92.3066768 C1113.52102,92.3066768 1099,106.816637 1099,124.715579 C1099,142.614522 1113.52102,157.124482 1131.4336,157.124482 C1134.31587,157.124482 1137.11033,156.748802 1139.77061,156.043772 C1140.94252,162.35445 1146.48053,167.133113 1153.1355,167.133113 C1156.32438,167.133113 1159.2568,166.035901 1161.57529,164.198677 C1167.98815,173.458751 1178.693,179.524752 1190.81572,179.524752 C1203.21089,179.524752 1214.12374,173.183031 1220.48199,163.569533 C1222.72905,165.210976 1225.49925,166.17991 1228.49593,166.17991 C1234.41793,166.17991 1239.45546,162.395921 1241.31906,157.115649 Z" filter="url(#d)"/>
    <path d="M599.322946,591.232329 C599.591628,591.238479 599.861069,591.24157 600.131234,591.24157 C619.201727,591.24157 634.661417,575.838086 634.661417,556.836926 C634.661417,539.442627 621.705909,525.063246 604.88477,522.755616 C603.226946,511.570269 593.552225,502.98618 581.865267,502.98618 C578.997854,502.98618 576.251572,503.50292 573.715108,504.448035 C568.596885,500.410613 562.126916,498 555.091864,498 C546.790632,498 539.276198,501.356433 533.841015,506.781544 C529.110922,504.35562 523.745716,502.98618 518.059493,502.98618 C503.944548,502.98618 491.807659,511.42445 486.453114,523.514167 C485.652648,523.458051 484.844541,523.429519 484.029746,523.429519 C465.235636,523.429519 450,538.609764 450,557.335544 C450,576.061325 465.235636,591.24157 484.029746,591.24157 C487.053858,591.24157 489.985836,590.848535 492.777033,590.110937 C494.006622,596.713136 499.817168,601.712548 506.79965,601.712548 C510.145465,601.712548 513.222196,600.564651 515.654778,598.642556 C522.383233,608.330398 533.614897,614.676617 546.334208,614.676617 C559.339375,614.676617 570.789276,608.041941 577.460429,597.984349 C579.818082,599.701618 582.724612,600.715312 585.868766,600.715312 C592.082199,600.715312 597.367633,596.756522 599.322946,591.232329 Z" filter="url(#e)"/>
    <path d="M1184.10812,565.98028 C1191.40435,565.592775 1197.20141,559.542825 1197.20141,552.136364 C1197.20141,550.957854 1197.05464,549.813689 1196.7784,548.721217 C1196.91891,548.725245 1197.05993,548.727273 1197.20141,548.727273 C1205.21963,548.727273 1211.71968,542.215051 1211.71968,534.181818 C1211.71968,530.659792 1210.47023,527.430139 1208.39117,524.9135 C1214.21518,521.151499 1218.07143,514.595112 1218.07143,507.136364 C1218.07143,497.607188 1211.77718,489.550865 1203.12675,486.91283 C1197.74754,477.410969 1187.5599,471 1175.8777,471 C1166.84413,471 1158.70424,474.83348 1152.99032,480.965285 C1150.3396,480.102614 1147.51048,479.636364 1144.57267,479.636364 C1137.1658,479.636364 1130.44985,482.600116 1125.54186,487.408508 C1121.20413,485.339683 1116.35004,484.181818 1111.22602,484.181818 C1102.45207,484.181818 1094.46956,487.576711 1088.51577,493.126894 C1086.71283,491.520968 1084.33801,490.545455 1081.73578,490.545455 C1076.09797,490.545455 1071.52762,495.124361 1071.52762,500.772727 C1071.52762,501.460559 1071.59539,502.132531 1071.72461,502.782306 C1065.81673,507.263766 1062,514.367144 1062,522.363636 C1062,532.547997 1068.19099,541.283668 1077.00815,544.999166 C1075.83319,546.950277 1075.15718,549.236955 1075.15718,551.681818 C1075.15718,558.836416 1080.94629,564.636364 1088.08752,564.636364 C1088.16268,564.636364 1088.23769,564.635721 1088.31255,564.634441 C1089.80561,570.136115 1094.82673,574.181818 1100.79101,574.181818 C1103.82432,574.181818 1106.61368,573.135383 1108.81906,571.383181 C1114.91907,580.214719 1125.10168,586 1136.63299,586 C1148.42346,586 1158.80393,579.951759 1164.85199,570.783152 C1166.98944,572.348633 1169.62449,573.272727 1172.47498,573.272727 C1177.58968,573.272727 1182.01078,570.297506 1184.10812,565.98028 Z" filter="url(#f)" transform="matrix(1 0 0 -1 0 1057)"/>
    <path d="M954.393421,318.547169 C958.574095,312.232743 961.008547,304.661829 961.008547,296.522472 C961.008547,274.455904 943.115244,256.567416 921.042735,256.567416 C914.038988,256.567416 907.456017,258.368488 901.731952,261.53262 C896.439631,256.259668 889.139048,253 881.076923,253 C870.475366,253 861.190652,258.636554 856.057626,267.07558 C852.40513,264.931588 848.150655,263.702247 843.608974,263.702247 C830.010733,263.702247 818.987179,274.722834 818.987179,288.317416 C818.987179,290.668888 819.316994,292.943348 819.932898,295.097085 C810.261522,302.317229 804,313.850336 804,326.845506 C804,348.715051 821.733542,366.44382 843.608974,366.44382 C846.78266,366.44382 849.869166,366.070662 852.826989,365.365839 C860.089506,374.295189 871.165752,380 883.574786,380 C891.050518,380 898.042532,377.929512 904.008372,374.330844 C907.9491,377.008347 912.707373,378.573034 917.831197,378.573034 C927.259178,378.573034 935.449512,373.275465 939.586372,365.495398 C941.743748,366.113039 944.022337,366.44382 946.378205,366.44382 C959.976447,366.44382 971,355.423234 971,341.828652 C971,331.039443 964.05665,321.871504 954.393421,318.547169 Z" filter="url(#g)"/>
    <path d="M464.148165,223.972921 C466.347357,223.528 468.623511,223.294444 470.954373,223.294444 C489.757253,223.294444 505,238.493134 505,257.241667 C505,266.576493 501.221311,275.03131 495.105906,281.168314 C495.684343,283.003006 495.996198,284.955467 495.996198,286.980556 C495.996198,297.671868 487.304053,306.338889 476.581749,306.338889 C474.724131,306.338889 472.927449,306.078749 471.226344,305.593013 C467.964402,311.711562 461.506269,315.877778 454.072243,315.877778 C450.032074,315.877778 446.280145,314.647246 443.172854,312.541554 C438.46875,315.371687 432.955501,317 427.060837,317 C417.27623,317 408.542537,312.513513 402.815994,305.491122 C400.483731,306.045423 398.050001,306.338889 395.547529,306.338889 C378.298605,306.338889 364.315589,292.39629 364.315589,275.197222 C364.315589,273.573163 364.440269,271.978139 364.680604,270.42115 C360.01352,266.885667 357,261.29235 357,254.997222 C357,244.30591 365.692145,235.638889 376.414449,235.638889 C377.097395,235.638889 377.772105,235.67405 378.436858,235.742657 C381.712464,229.668366 388.146353,225.538889 395.547529,225.538889 C399.128674,225.538889 402.483356,226.505691 405.363373,228.19181 C409.410798,221.555029 416.731857,217.122222 425.091255,217.122222 C429.231949,217.122222 433.117881,218.209837 436.477388,220.11419 C439.775003,217.53671 443.929956,216 448.444867,216 C454.899363,216 460.618198,219.140642 464.148165,223.972921 Z" filter="url(#h)"/>
  </g>
</svg>
