<svg xmlns="http://www.w3.org/2000/svg" width="1932" height="216" viewBox="0 0 1932 216">
  <defs>
    <linearGradient id="a" x1="50%" x2="50%" y1="0%" y2="92.122%">
      <stop stop-color="#FFFFFF" stop-opacity=".731" offset="0%"/>
      <stop stop-color="#FFFFFF" stop-opacity=".398" offset="100%"/>
    </linearGradient>
    <linearGradient id="b" x1="50%" x2="50%" y1="0%" y2="92.122%">
      <stop stop-color="#FFFFFF" stop-opacity=".661" offset="0%"/>
      <stop stop-color="#FFFFFF" stop-opacity=".316" offset="100%"/>
    </linearGradient>
  </defs>
  <g fill="none" fill-rule="evenodd">
    <path fill="url(#a)" d="M244.054701,120.267681 C165.792425,95.8062032 467.138411,105.446629 568.700822,109.167754 C670.263234,112.888878 847.841572,109.167754 895.060488,109.167754 C942.23518,109.167754 956.395414,101.2936 964.987199,109.167754 C981.605523,124.398027 927.13902,134.085968 920.031785,145 C912.924551,155.914032 944.423247,172.569771 926.222402,178.350068 C893.716966,188.673274 768.124778,178.350068 736.740323,178.350068 C633.142929,178.350068 646.334624,182.545495 568.700822,182.545495 C491.06702,182.545495 264.825634,186.244881 184.25101,178.350068 C103.676386,170.455255 56.0631533,158.728039 136.891279,144.999359 C246.608711,126.363822 322.316976,144.729159 244.054701,120.267681 Z" transform="matrix(-1 0 0 1 1063.2 0)"/>
    <path fill="url(#b)" d="M1205.31557,65.8071317 C1205.31557,45.2008148 1310.63386,84.7749205 1353.2822,79.493314 C1395.93053,74.2117075 1361.99844,76.6173863 1444.78494,52.6709209 C1564.14114,18.1464624 1718.57138,97.8651149 1588.96621,97.8651149 C1436.02193,97.8651149 1491.86502,186.447613 1436.8944,157.584424 C1381.92377,128.721235 1271.93766,125.274463 1239.98203,131.423899 C1208.95279,137.395062 1176.94576,143.744753 1140.83872,136.512795 C1115.43136,131.423899 1094.90044,129.499673 1133.082,117.235823 C1171.26356,104.971973 1205.31557,86.4134485 1205.31557,65.8071317 Z" transform="matrix(-1 0 0 1 2750.11 0)"/>
  </g>
</svg>
