<svg xmlns="http://www.w3.org/2000/svg" width="1546" height="242" viewBox="0 0 1546 242">
  <defs>
    <linearGradient id="a" x1="50.952%" x2="50%" y1="27.042%" y2="100%">
      <stop stop-color="#FFFFFF" stop-opacity=".284" offset="0%"/>
      <stop stop-color="#FFFFFF" stop-opacity=".771" offset="100%"/>
    </linearGradient>
    <linearGradient id="b" x1="50%" x2="50%" y1="0%" y2="92.122%">
      <stop stop-color="#FFFFFF" stop-opacity=".37" offset="0%"/>
      <stop stop-color="#FFFFFF" stop-opacity=".712" offset="100%"/>
    </linearGradient>
  </defs>
  <g fill="none" fill-rule="evenodd">
    <path fill="url(#a)" d="M840,75.7209057 C840,57.3910306 877.46974,55.9890543 906.16261,48.1133025 C934.85548,40.2375507 924.536093,45.8098007 982.904848,36.4109211 C1032.16834,28.4782238 1044.86933,42.6617063 1088.59905,42.6617063 C1132.32877,42.6617063 1174.24963,63.9627336 1270.95398,42.6617063 C1410.37603,11.9512685 1359.64678,74.440438 1422.72065,75.7209057 C1603.42418,79.3893827 1377.64388,123.08931 1291.69328,123.08931 C1205.74268,123.08931 1078.34803,112.975648 1035.04856,112.975648 C981.945433,112.975648 975.745478,108.4392 926.385497,112.975648 C890.447244,116.278567 876.666497,104.5094 921.267037,93.6003744 C965.867577,82.6913488 840,94.0507808 840,75.7209057 Z"/>
    <path fill="url(#b)" d="M190.395932,91.482267 C96.3119602,51.7129196 400.5,107.417822 470.022273,73.8062032 C539.544545,40.1945841 616.428883,68.3465276 681.696815,83.4466293 C828.991812,117.524152 777.870455,156.350068 670.539501,156.350068 C566.942107,156.350068 601.642769,216.516901 454.5693,169.75813 C307.49583,122.999359 195.762853,185.389429 115.18823,177.494616 C34.613606,169.599803 -10.1376687,136.728039 70.6904571,122.999359 C180.407888,104.363822 269.178414,124.783666 190.395932,91.482267 Z" transform="matrix(-1 0 0 1 801 0)"/>
  </g>
</svg>
