<?xml version="1.0" encoding="UTF-8"?>
<svg width="329px" height="429px" viewBox="0 0 329 429" version="1.1" xmlns="http://www.w3.org/2000/svg" xmlns:xlink="http://www.w3.org/1999/xlink">
    <!-- Generator: Sketch 55.2 (78181) - https://sketchapp.com -->
    <title>Po</title>
    <desc>Created with Sketch.</desc>
    <defs>
        <radialGradient cx="37.1950686%" cy="39.4492259%" fx="37.1950686%" fy="39.4492259%" r="101.556344%" gradientTransform="translate(0.371951,0.394492),scale(1.000000,0.656193),rotate(-9.200105),scale(1.000000,0.589501),translate(-0.371951,-0.394492)" id="radialGradient-1">
            <stop stop-color="#F4D469" offset="0%"></stop>
            <stop stop-color="#EDCB5A" offset="100%"></stop>
        </radialGradient>
    </defs>
    <g id="Page-1" stroke="none" stroke-width="1" fill="none" fill-rule="evenodd">
        <g id="Potatoes" transform="translate(-1396.000000, -381.000000)">
            <g id="Po" transform="translate(1395.000000, 381.000000)">
                <path d="M196.420106,6.50509612 C150.985092,-15.7706338 72.4566719,38.2282733 55.4813752,84.7371027 C45.6121562,111.776737 47.0348081,138.643341 45.9483943,176.706465 C45.2904554,199.757731 33.1071406,247.706841 42.612554,280.643023 C52.8642083,316.164924 99.2501421,368.243538 168.428628,366.223057 C287.69881,362.739559 273.015298,295.595707 278.57444,217.462899 C286.690698,103.390246 242.175782,28.938039 196.420106,6.50509612 Z" id="body-back" fill="#E3BF42"></path>
                <path d="M180.853038,0.183722124 C143.761763,-2.94057499 80.5210296,34.2213923 65.083645,78.2097351 C55.7313313,104.85886 62.884507,144.528629 61.7696585,183.587982 C61.261893,201.377836 52.7431991,235.923864 55.5752699,262.303538 C58.1616016,286.394243 77.1712371,320.40666 107.03185,338.370807 C132.536228,353.714242 165.881346,355.019469 204.497285,354.077368 C293.788678,351.898955 280.587119,248.229444 286.146261,170.096636 C294.26252,56.0239829 266.580167,7.40474695 180.853038,0.183722124 Z" id="body" fill="url(#radialGradient-1)"></path>
                <circle id="Oval-2" fill="#7A6B38" cx="145" cy="126" r="7"></circle>
                <circle id="Oval-2" fill="#7A6B38" cx="235" cy="124" r="7"></circle>
                <path d="M98.1414625,139.33822 C100.845309,141.020406 100.744331,144.209772 99.7597769,145.550879 C98.7752233,146.891987 95.0804338,146.717025 94.201808,144.704612 C93.3231821,142.6922 95.4376158,137.656035 98.1414625,139.33822 Z" id="Path-130" fill="#E0BD40"></path>
                <path d="M82.1414625,169.33822 C84.8453092,171.020406 84.7443305,174.209772 83.7597769,175.550879 C82.7752233,176.891987 79.0804338,176.717025 78.201808,174.704612 C77.3231821,172.6922 79.4376158,167.656035 82.1414625,169.33822 Z" id="Path-130-Copy-3" fill="#E0BD40"></path>
                <path d="M53.1414625,210.33822 C55.8453092,212.020406 55.7443305,215.209772 54.7597769,216.550879 C53.7752233,217.891987 50.0804338,217.717025 49.201808,215.704612 C48.3231821,213.6922 50.4376158,208.656035 53.1414625,210.33822 Z" id="Path-130-Copy-8" fill="#BE9D2C"></path>
                <path d="M76.1414625,312.33822 C78.8453092,314.020406 78.7443305,317.209772 77.7597769,318.550879 C76.7752233,319.891987 73.0804338,319.717025 72.201808,317.704612 C71.3231821,315.6922 73.4376158,310.656035 76.1414625,312.33822 Z" id="Path-130-Copy-8" fill="#BE9D2C"></path>
                <path d="M98.1414625,257.33822 C100.845309,259.020406 100.744331,262.209772 99.7597769,263.550879 C98.7752233,264.891987 95.0804338,264.717025 94.201808,262.704612 C93.3231821,260.6922 95.4376158,255.656035 98.1414625,257.33822 Z" id="Path-130-Copy-4" fill="#E0BD40"></path>
                <path d="M228.890533,45.5422471 C231.594379,47.2244328 231.579806,51.5765592 230.595252,52.9176669 C229.610698,54.2587745 225.080434,53.7170246 224.201808,51.7046123 C223.323182,49.6922001 226.186686,43.8600614 228.890533,45.5422471 Z" id="Path-130" fill="#E0BD40"></path>
                <path d="M107.850422,264.300768 C110.554268,265.982954 110.539695,270.33508 109.555141,271.676188 C108.570587,273.017296 104.040323,272.475546 103.161697,270.463134 C102.283071,268.450721 105.146575,262.618583 107.850422,264.300768 Z" id="Path-130" fill="#E0BD40"></path>
                <path d="M232.833237,264.14898 C235.077252,265.245189 235.043913,268.970237 234.05936,270.311345 C233.074806,271.652452 229.023139,272.323757 228.144513,270.311345 C227.265887,268.298933 230.589223,263.05277 232.833237,264.14898 Z" id="Path-130-Copy" fill="#E0BD40"></path>
                <path d="M260.833237,235.14898 C263.077252,236.245189 263.043913,239.970237 262.05936,241.311345 C261.074806,242.652452 257.023139,243.323757 256.144513,241.311345 C255.265887,239.298933 258.589223,234.05277 260.833237,235.14898 Z" id="Path-130-Copy-7" fill="#E0BD40"></path>
                <path d="M252.833237,244.14898 C255.077252,245.245189 255.043913,248.970237 254.05936,250.311345 C253.074806,251.652452 249.023139,252.323757 248.144513,250.311345 C247.265887,248.298933 250.589223,243.05277 252.833237,244.14898 Z" id="Path-130-Copy-7" fill="#E0BD40" transform="translate(251.349717, 247.790636) rotate(-50.000000) translate(-251.349717, -247.790636) "></path>
                <path d="M114.833237,249.14898 C117.077252,250.245189 117.043913,253.970237 116.05936,255.311345 C115.074806,256.652452 111.023139,257.323757 110.144513,255.311345 C109.265887,253.298933 112.589223,248.05277 114.833237,249.14898 Z" id="Path-130-Copy-5" fill="#E0BD40"></path>
                <path d="M101.833237,75.1489796 C104.077252,76.245189 104.043913,79.9702372 103.05936,81.3113448 C102.074806,82.6524525 98.0231385,83.3237571 97.1445126,81.3113448 C96.2658867,79.2989326 99.5892232,74.0527701 101.833237,75.1489796 Z" id="Path-130-Copy-6" fill="#E0BD40"></path>
                <path d="M204.401368,312.210676 C210.552578,313.693884 208.51833,319.559903 207.533777,320.901011 C206.549223,322.242119 198.079809,321.516683 197.201184,319.504271 C196.322558,317.491859 198.250159,310.727468 204.401368,312.210676 Z" id="Path-130" fill="#E0BD40"></path>
                <path d="M172.401368,28.2106761 C178.552578,29.6938838 176.51833,35.5599033 175.533777,36.901011 C174.549223,38.2421186 166.079809,37.5166833 165.201184,35.5042711 C164.322558,33.4918589 166.250159,26.7274684 172.401368,28.2106761 Z" id="Path-130-Copy-2" fill="#E0BD40"></path>
                <path d="M132.993868,169.431863 C137.700434,173.398806 153.721159,172.008803 157.193286,169.431863 C160.665414,166.854923 157.193286,157.638865 153.889089,154.867805 C150.584892,152.096745 138.858379,147.800285 128.496698,151.334045 C118.135017,154.867805 128.287302,165.464921 132.993868,169.431863 Z" id="cheeck" fill="#E2C046"></path>
                <path d="M227.536566,163.259559 C232.243132,167.226501 250.756656,168.413439 254.228784,165.836499 C257.700912,163.259559 257.536801,149.838617 254.228784,146.679548 C250.920767,143.52048 234.233454,142.715741 232.243132,146.679548 C230.25281,150.643356 222.83,159.292616 227.536566,163.259559 Z" id="cheeck" fill="#E2C046" transform="translate(241.385855, 155.601054) scale(-1, 1) translate(-241.385855, -155.601054) "></path>
                <path d="M242,175.751167 L308,175.751167 C318.00969,169.891945 324.02717,167.846562 326.052439,169.615017 C334.700997,177.166893 338.973683,186.364963 325.663608,194.71399 C323.294925,196.199797 317.407055,194.21219 308,188.751167 L242,188.751167 L242,175.751167 Z" id="arm-right" fill="#EFCE5E" transform="translate(288.077907, 182.095337) rotate(-30.000000) translate(-288.077907, -182.095337) "></path>
                <path d="M-1,174.626499 L65,174.626499 C72.5344662,169.25435 77.3244537,172.123205 79.3699625,183.233065 C81.4154713,194.342924 76.6254838,195.807402 65,187.626499 L-1,187.626499 L-1,174.626499 Z" id="arm-left" fill="#F1D061" transform="translate(39.414524, 182.415292) scale(-1, 1) rotate(-35.000000) translate(-39.414524, -182.415292) "></path>
                <g id="Smile" transform="translate(159.000000, 146.000000)" stroke="#7A6B38" stroke-width="4">
                    <g id="mouth" transform="translate(3.000000, 6.000000)">
                        <path d="M55.1963019,3.8022298 C53.9657121,6.70340078 53.4525675,7.90187846 53.656868,7.39766283 C60.747209,-10.1013643 47.6259606,29.6401913 29.2232734,29.4906917 C15.6329745,29.380287 9.05405564,16.93454 0.707343221,1.10041354 C0.455432458,0.622526361 0.946537706,1.52313178 2.18065897,3.8022298" id="Path-128"></path>
                    </g>
                </g>
                <g id="left-leg" transform="translate(134.000000, 346.000000)" fill="#EDCB5A">
                    <rect x="3" y="0" width="13" height="66"></rect>
                    <path d="M33.2272503,66.1002788 C38.1729898,73.1772149 36.6756335,78.3940206 33.2272503,81.3952258 C29.7788671,84.3964311 6.75934683,81.3952258 4.22804364,76.9875607 C1.69674045,72.5798955 -0.753352879,65.3120701 0.217238784,64.160614 C1.18783045,63.0091578 28.2815107,59.0233427 33.2272503,66.1002788 Z" id="left-foot"></path>
                </g>
                <g id="right-leg" transform="translate(201.000000, 346.000000)" fill="#EDCB5A">
                    <rect x="4" y="0" width="13" height="66"></rect>
                    <path d="M34.2272503,64.160614 C37.7077342,67.4085106 40.099258,79.6801293 34.2272503,81.3952258 C28.3552425,83.1103224 5.55800309,82.8619593 3.0266999,78.4542941 C0.495396716,74.046629 0.246647121,65.3120701 1.21723878,64.160614 C2.18783045,63.0091578 30.7467664,60.9127174 34.2272503,64.160614 Z" id="right-foot"></path>
                </g>
            </g>
        </g>
    </g>
</svg>