<?xml version="1.0" encoding="UTF-8"?>
<svg width="20px" height="15px" viewBox="0 0 20 15" version="1.1" xmlns="http://www.w3.org/2000/svg" xmlns:xlink="http://www.w3.org/1999/xlink">
    <!-- Generator: Sketch 46.2 (44496) - http://www.bohemiancoding.com/sketch -->
    <title>medium</title>
    <desc>Created with Sketch.</desc>
    <defs></defs>
    <g id="Page-1" stroke="none" stroke-width="1" fill="none" fill-rule="evenodd">
        <g id="Social-Media-Icons" transform="translate(-125.000000, -95.000000)" fill-rule="nonzero" fill="#353535">
            <g id="medium" transform="translate(125.000000, 95.000000)">
                <path d="M19.0181126,2.14285714 C19.0181126,2.14285714 18.2142857,2.14285714 18.2142857,2.94658136 C18.2142857,3.75030557 18.2142857,12.0540226 18.2142857,12.0540226 C18.2142857,12.0540226 18.2142857,12.8571429 19.0181126,12.8571429 L19.2857143,12.8571429 L19.2857143,15 L12.8571429,15 L12.8571429,12.8571429 L13.9285714,12.8571429 L13.9285714,2.89280486 L13.8214547,2.89280486 L10.5379813,15 L7.64635361,15 L4.39283154,2.89280486 L4.28571482,2.89280486 L4.28571482,12.8571429 L5.35714339,12.8571429 L5.35714339,15 L5.35714284e-07,15 L5.35714284e-07,12.8571429 L0.267603429,12.8571429 C0.267603429,12.8571429 1.07142911,12.8571429 1.07142911,12.0534181 C1.07142911,11.2496944 1.07142911,2.94597793 1.07142911,2.94597793 C1.07142911,2.94597793 1.07142911,2.14285714 0.267603321,2.14285714 L5.35714285e-07,2.14285714 L5.35714285e-07,0 L7.10789325,0 L9.60100446,9.27769254 L9.68314039,9.27769254 L12.199271,0 L19.2857143,0 L19.2857143,2.14285714 L19.0181126,2.14285714 Z" id="Shape"></path>
            </g>
        </g>
    </g>
</svg>