<svg xmlns="http://www.w3.org/2000/svg" width="3211" height="216" viewBox="0 0 3211 216">
  <defs>
    <linearGradient id="a" x1="50%" x2="50%" y1="0%" y2="92.122%">
      <stop stop-color="#FFFFFF" stop-opacity=".731" offset="0%"/>
      <stop stop-color="#FFFFFF" stop-opacity=".398" offset="100%"/>
    </linearGradient>
    <linearGradient id="b" x1="50%" x2="50%" y1="0%" y2="92.122%">
      <stop stop-color="#FFFFFF" stop-opacity=".661" offset="0%"/>
      <stop stop-color="#FFFFFF" stop-opacity=".316" offset="100%"/>
    </linearGradient>
    <linearGradient id="c" x1="50.952%" x2="50%" y1="27.042%" y2="100%">
      <stop stop-color="#FFFFFF" stop-opacity=".284" offset="0%"/>
      <stop stop-color="#FFFFFF" stop-opacity=".771" offset="100%"/>
    </linearGradient>
    <linearGradient id="d" x1="50%" x2="50%" y1="0%" y2="92.122%">
      <stop stop-color="#FFFFFF" stop-opacity=".37" offset="0%"/>
      <stop stop-color="#FFFFFF" stop-opacity=".712" offset="100%"/>
    </linearGradient>
  </defs>
  <g fill="none" fill-rule="evenodd">
    <path fill="url(#a)" d="M979.978701,123.125615 C901.716426,98.664137 1203.06241,108.304563 1304.62482,112.025688 C1406.18723,115.746812 1583.76557,112.025688 1630.98449,112.025688 C1678.15918,112.025688 1692.31941,104.151533 1700.9112,112.025688 C1717.52952,127.255961 1663.06302,136.943902 1655.95579,147.857934 C1648.84855,158.771965 1680.34725,175.427704 1662.1464,181.208002 C1629.64097,191.531208 1504.04878,181.208002 1472.66432,181.208002 C1369.06693,181.208002 1382.25862,185.403428 1304.62482,185.403428 C1226.99102,185.403428 1000.74963,189.102815 920.175011,181.208002 C839.600387,173.313189 791.987154,161.585973 872.81528,147.857293 C982.532711,129.221756 1058.24098,147.587093 979.978701,123.125615 Z" transform="matrix(-1 0 0 1 2535.049 0)"/>
    <path fill="url(#b)" d="M1797.31557,33.8071317 C1797.31557,13.2008148 1902.63386,52.7749205 1945.2822,47.493314 C1987.93053,42.2117075 1953.99844,44.6173863 2036.78494,20.6709209 C2156.14114,-13.8535376 2310.57138,65.8651149 2180.96621,65.8651149 C2028.02193,65.8651149 2083.86502,154.447613 2028.8944,125.584424 C1973.92377,96.7212354 1863.93766,93.274463 1831.98203,99.4238994 C1800.95279,105.395062 1768.94576,111.744753 1732.83872,104.512795 C1707.43136,99.4238994 1686.90044,97.4996731 1725.082,85.2358232 C1763.26356,72.9719732 1797.31557,54.4134485 1797.31557,33.8071317 Z" transform="matrix(-1 0 0 1 3934.11 0)"/>
    <path fill="url(#c)" d="M128,83.7209057 C128,65.3910306 165.46974,63.9890543 194.16261,56.1133025 C222.85548,48.2375507 212.536093,53.8098007 270.904848,44.4109211 C320.168344,36.4782238 332.869334,50.6617063 376.599052,50.6617063 C420.32877,50.6617063 462.249629,71.9627336 558.953979,50.6617063 C698.376031,19.9512685 647.646783,82.440438 710.720648,83.7209057 C891.424176,87.3893827 665.643877,131.08931 579.693281,131.08931 C493.742685,131.08931 366.348025,120.975648 323.048564,120.975648 C269.945433,120.975648 263.745478,116.4392 214.385497,120.975648 C178.447244,124.278567 164.666497,112.5094 209.267037,101.600374 C253.867577,90.6913488 128,102.050781 128,83.7209057 Z"/>
    <path fill="url(#d)" d="M2552.39593,75.482267 C2458.31196,35.7129196 2762.5,91.4178224 2832.02227,57.8062032 C2901.54455,24.1945841 2978.42888,52.3465276 3043.69681,67.4466293 C3190.99181,101.524152 3139.87046,140.350068 3032.5395,140.350068 C2928.94211,140.350068 2963.64277,200.516901 2816.5693,153.75813 C2669.49583,106.999359 2557.76285,169.389429 2477.18823,161.494616 C2396.61361,153.599803 2351.86233,120.728039 2432.69046,106.999359 C2542.40789,88.3638223 2631.17841,108.783666 2552.39593,75.482267 Z" transform="matrix(-1 0 0 1 5525 0)"/>
  </g>
</svg>
