<svg xmlns="http://www.w3.org/2000/svg" width="910" height="129" viewBox="0 0 910 129">
  <defs>
    <linearGradient id="a" x1="50%" x2="50%" y1="0%" y2="92.122%">
      <stop stop-color="#FFFFFF" stop-opacity=".295" offset="0%"/>
      <stop stop-color="#FFFFFF" stop-opacity=".836" offset="100%"/>
    </linearGradient>
  </defs>
  <path fill="url(#a)" fill-rule="evenodd" d="M317.315573,23.8071317 C317.315573,3.20081482 422.633863,42.7749205 465.282195,37.493314 C507.930528,32.2117075 473.998443,34.6173863 556.784942,10.6709209 C676.141139,-23.8535376 830.571383,55.8651149 700.966206,55.8651149 C548.02193,55.8651149 603.865019,144.447613 548.894397,115.584424 C493.923774,86.7212354 383.937664,83.274463 351.982028,89.4238994 C320.952792,95.3950625 288.945763,101.744753 252.83872,94.5127947 C227.431362,89.4238994 206.900445,87.4996731 245.082,75.2358232 C283.263556,62.9719732 317.315573,44.4134485 317.315573,23.8071317 Z" transform="matrix(-1 0 0 1 974.11 0)"/>
</svg>
