<?xml version="1.0" encoding="UTF-8"?>
<svg width="232px" height="334px" viewBox="0 0 232 334" version="1.1" xmlns="http://www.w3.org/2000/svg" xmlns:xlink="http://www.w3.org/1999/xlink">
    <!-- Generator: Sketch 45.2 (43514) - http://www.bohemiancoding.com/sketch -->
    <title>Hamlet Copy</title>
    <desc>Created with Sketch.</desc>
    <defs></defs>
    <g id="Page-1" stroke="none" stroke-width="1" fill="none" fill-rule="evenodd">
        <g id="Artboard-4" transform="translate(-1347.000000, -257.000000)">
            <g id="Hamlet-Copy" transform="translate(1326.000000, 258.000000)">
                <g id="body-back" transform="translate(0.000000, 97.396958)">
                    <path d="M114.413395,0.193982723 C76.8049529,21.6065552 55.194884,46.6482896 49.5831883,75.3191858 C43.9714926,103.990082 47.318656,125.904114 59.6246783,141.061282 C83.5759197,150.705194 101.838825,151.515565 114.413395,143.492395 C126.987965,135.469224 140.303403,115.609174 154.359711,83.9122432 L114.413395,0.193982723 Z" id="Path-97" stroke="#28272E" stroke-width="2" fill="#FFFFFF"></path>
                    <path d="M99.2830975,85.9310081 C65.8760624,75.7406766 52.940141,63.1628925 60.4753332,48.1976559 C68.0105254,33.2324192 86.1028838,17.201203 114.752408,0.104007312 L99.2830975,85.9310081 Z" id="Path-98" fill="#28272E"></path>
                    <path d="M106.241333,8.48020351 C99.0466438,21.3408877 95.0978305,37.1588745 94.3948933,55.9341638 C93.6919561,74.7094532 96.754648,88.6763162 103.582969,97.834753 L106.241333,8.48020351 Z" id="Path-99" stroke="#ECECEC" stroke-width="3"></path>
                    <g id="leg-back-left" transform="translate(97.396958, 109.381038)">
                        <path d="M64.986358,15.7117579 C72.5292009,42.8788803 25.8286927,60.7719893 25.8143137,71.7037843 C25.7999347,82.6355793 62.5446799,101.749769 64.986358,105.27251 C67.4280361,108.79525 64.986358,118.91756 58.9466675,123.298156 C52.9069771,127.678751 38.4672566,117.687481 35.6220456,115.319058 C32.7768346,112.950635 35.6220456,110.580238 32.5319363,103.83836 C29.441827,97.0964823 2.44603562,83.6891701 0.98114659,77.0921602 C0.00455390168,72.6941536 0.99988916,62.8654161 3.96715237,47.6059476 L30.0030932,9.17121066 C48.2967078,-4.57983938 59.9577961,-2.39965696 64.986358,15.7117579 Z" id="Path-86" stroke="#28272E" stroke-width="2" fill="#FFFFFF"></path>
                        <path d="M0.997401117,76.15815 C1.32950516,76.796581 2.93222914,71.4104497 7.33264533,65.924776 C13.7485305,57.926566 24.1529429,53.7165337 24.3116409,45.6997462 C24.3750094,42.4986213 17.6179343,43.0853735 4.04041549,47.4600028 C2.11055744,52.603539 0.896289067,57.5168196 0.397610358,62.1998448 C0.356605905,62.5849121 0.181083463,74.5888754 0.997401117,76.15815 Z" id="Path-91" fill="#28272E"></path>
                    </g>
                    <g id="leg-back-right" transform="translate(66.366578, 140.437813) rotate(-10.000000) translate(-66.366578, -140.437813) translate(12.866578, 66.937813)">
                        <path d="M0.877089022,133.123561 C-2.16759104,116.091297 8.94991085,105.643555 13.2678474,84.9897627 C17.5857839,64.3359699 10.7137738,54.8706334 25.1123019,34.1248813 C39.5108299,13.3791292 49.9460602,12.1584037 61.7106591,18.5144542 C67.9077458,21.8625493 83.5794092,53.8418871 74.8507058,71.2867582 C67.008769,86.9593694 35.0833902,88.3909076 33.0288555,89.1794489 C28.687459,90.8456999 21.6741797,114.652637 22.1667031,118.593587 C22.6592264,122.534537 28.7678972,124.631251 30.0017676,129.395624 C31.235638,134.159997 29.1792682,139.39105 26.1381817,143.597749 C23.0970951,147.804447 3.92176909,150.155824 0.877089022,133.123561 Z" id="Path-94" stroke="#28272E" stroke-width="2" fill="#FFFFFF"></path>
                        <path d="M14.9832904,70.2954636 C16.9307702,78.7180201 20.1323335,79.8516462 24.5879804,73.696342 C31.3905901,74.8656685 37.2968054,71.95471 42.3066265,64.9634663 C49.821358,54.4766008 60.1701937,38.9938714 59.152489,33.6989477 C58.1347842,28.4040239 44.7052488,14.5069799 31.1574678,26.6574488 C17.6096869,38.8079177 12.0620709,57.6616289 14.9832904,70.2954636 Z" id="Path-95" fill="#28272E"></path>
                        <path d="M57.8386202,10.588709 L62.7551999,5.42477936 C74.8861614,14.9032005 81.4155855,21.8352058 82.3434722,26.220795 C83.1620701,30.0898385 94.4588298,52.0601548 92.6843108,88.1083722 C92.6527909,88.7486773 89.3611796,95.2791618 85.2501638,94.2954912 C81.6098987,93.4244604 72.2095157,88.9015146 57.7139522,79.7191811 C55.740728,78.469226 52.6654184,76.2531189 48.4880235,73.0708597 C60.1956942,59.0240528 66.3574505,45.7509463 66.9732924,33.2515402 C67.5891344,20.7521341 64.5442437,13.197857 57.8386202,10.588709 Z" id="white-cover" fill="#FFFFFF" transform="translate(70.680575, 49.910491) rotate(-20.000000) translate(-70.680575, -49.910491) "></path>
                    </g>
                </g>
                <g id="body-front" transform="translate(95.429673, 87.560534)">
                    <path d="M19.4595976,1.78340931 C3.22091822,30.4509113 -2.3401928,61.1426965 2.7762645,93.8587649 C4.04846669,101.993584 9.21035085,106.633396 11.7754986,113.964099 C13.5608821,119.066386 13.8764834,126.203099 15.9567668,131.026403 C28.9181407,161.07839 47.7530834,183.300643 50.3768228,198.948903 C54.0266936,220.717118 52.765979,227.821266 55.1699373,231.08672 C57.5738956,234.352173 68.6371993,237.21379 72.531426,235.473304 C75.1275771,234.31298 75.5856107,226.432991 73.9055268,211.833337 C70.7177998,199.46641 68.0007373,190.476893 65.7543395,184.864786 C63.9623428,180.387896 60.9272736,178.584345 58.9865286,173.907757 C50.6014659,153.702379 49.539155,145.725826 48.5780793,135.102991 C53.3085903,137.212507 85.0990819,129.978933 104.883595,111.525996 C107.75452,131.026403 113.972778,164.856196 115.254941,176.063989 C124.565722,184.864786 128.026665,189.053156 132.927853,190.523749 C137.829041,191.994342 152.019249,186.044764 151.760198,182.431952 C151.501146,178.81914 137.589203,170.035231 129.290933,162.018538 C123.233547,156.166693 129.683643,109.44825 132.096113,101.653507 C133.057883,98.5460064 131.099541,94.3161188 132.927853,87.1648578 C135.685613,76.3781563 142.078052,61.809931 140.501716,57.201345 C137.62492,48.7907221 132.109653,23.9281557 130.720687,20.9353536 C123.014603,4.33107513 85.9275732,-2.0529063 19.4595976,1.78340931 Z" stroke="#28272E" stroke-width="2" fill="#FFFFFF"></path>
                    <path d="M48.6634434,135.064514 C46.6261562,132.206746 45.6679095,130.212425 45.7887034,129.08155 C45.9698941,127.385238 47.4217135,123.366473 48.6634434,121.768325 C49.4912633,120.702893 51.9770167,119.716359 56.1207034,118.808724" id="Path-85" stroke="#28272E" stroke-width="2"></path>
                    <path d="M104.906208,111.672578 C106.781621,108.091463 109.967984,105.897215 114.465298,105.089833 C118.962611,104.282452 122.148975,102.991579 124.024388,101.217214" id="Path-83" stroke="#28272E" stroke-width="2"></path>
                    <path d="M23.4550058,1.9192866 C23.3713833,-6.57357214 7.56388044,17.7907279 1.97788005,52.9672543 C-3.60812033,88.1437807 4.71321748,103.999454 9.68218602,108.235171 C11.5627212,109.838203 15.3471482,102.659057 12.3878205,82.9943317 C10.4427713,70.0694848 23.5386282,10.4121453 23.4550058,1.9192866 Z" id="Path-80" fill="#28272E"></path>
                    <path d="M133.086894,29.4484862 C134.856186,37.7269423 136.145521,43.2400008 136.9549,45.9876617 C139.000237,52.931125 140.87582,55.8302093 140.95477,58.2014901 C141.080582,61.9803125 139.747292,67.1349461 136.9549,73.6653909 C137.264605,68.2905247 136.968813,62.4496483 136.067524,56.1427616 C134.71559,46.6824317 132.894234,44.9975157 132.341434,41.3820573 C131.972901,38.9717516 132.221387,34.9938946 133.086894,29.4484862 Z" id="Path-82" fill="#28272E"></path>
                </g>
                <g id="head" transform="translate(96.610044, 0.000000)">
                    <g id="ear-right" transform="translate(0.000000, 3.360742)">
                        <path d="M12.0074542,52.0241672 C8.00131619,56.7664418 2.88208477,52.0241672 0.768446554,43.9553521 C-1.34519167,35.886537 2.3513856,23.7306053 5.56444991,13.4094634 C8.74270931,3.20012333 9.53783557,2.71656529 13.4508551,0.45679883 C16.0595347,-1.04971214 24.4755874,1.23827113 38.6990131,7.32074865 C35.4519893,9.26204392 33.032562,10.8493099 31.4407314,12.0825467 C29.0529854,13.9324019 13.9174715,49.76318 12.0074542,52.0241672 Z" id="Path-101" stroke="#28272E" stroke-width="2" fill="#FFFFFF"></path>
                        <path d="M24.2844062,18.8699483 C25.226692,13.0098384 24.6692807,8.88503368 22.6121722,6.49553429 C19.5265095,2.9112852 16.9961611,1.2181209 12.5001605,4.42622527 C8.00415999,7.63432964 3.63440658,34.1233246 3.18927895,40.5285204 C2.74415132,46.9337162 9.42559367,51.4617043 9.53903258,47.0355877 C9.67076975,41.8955165 11.0252742,32.5890457 12.5001605,26.3212236 C14.3691535,18.3785669 17.5173685,17.2650724 18.2651309,17.757085 C20.0337169,18.9207789 20.0337169,22.0139383 18.2651309,27.036563 L24.2844062,18.8699483 Z" id="Path-102" fill="#28272E"></path>
                    </g>
                    <path d="M112.581121,10.6237109 C98.3527573,3.19140229 73.0109418,0.672759151 69.248427,1.02071316 C65.4859123,1.36866717 54.4040595,4.78597991 47.8106645,7.22450386 C37.5048655,11.0360361 14.716985,23.9004618 13.9252865,46.0544301 C14.8755078,59.0384654 16.5155143,71.8860476 16.6360895,78.9856925 C16.8211195,89.8805346 15.4652645,92.0665257 18.4593747,98.1386815 C25.5408614,112.500174 40.4639117,125.608423 38.9348062,131.430986 C33.3911069,152.54041 68.1308704,179.191735 88.0860541,175.812958 C108.041238,172.43418 126.91298,138.000397 126.623793,131.430986 C126.334606,124.861575 118.434933,126.948354 133.632827,100.309906 C145.093768,60.3484967 126.809484,18.0560195 112.581121,10.6237109 Z" id="face" stroke="#28272E" stroke-width="3" fill="#FFFFFF"></path>
                    <path d="M47.6369658,7.51027876 C46.3279375,14.8293937 45.6734233,19.8660096 45.6734233,22.6201265 C45.6734233,26.7513018 57.6124157,60.5292704 61.952883,72.2334497 C63.3197129,75.4505626 64.2781216,78.1402168 57.5457905,90.9173186 C53.3468732,98.8863257 35.7955479,108.949483 33.8044462,120.030604 C30.9922319,113.53028 22.4689771,108.159317 16.7961423,90.1491107 C15.2129097,85.1226387 17.0537808,79.648152 16.7961423,72.2334497 C16.4383561,61.936549 11.4053875,51.8856189 16.7961423,35.8802627 C20.3899788,25.2100253 30.6702533,15.753364 47.6369658,7.51027876 Z" id="spot-left" fill="#28272E"></path>
                    <path d="M98.6562544,5.7805926 C76.9381382,26.4029078 80.7339433,57.8020375 82.1948086,71.7382005 C87.102051,86.9673116 101.412568,101.04765 107.162484,102.590237 C110.995762,103.618628 120.308672,100.837615 135.101215,94.2471992 C136.968654,85.0401193 137.59892,75.9365877 136.992015,66.9366042 C135.557286,45.6605593 129.097757,34.3671844 125.740081,26.2534343 C118.980844,9.91988651 107.162484,8.71456221 98.6562544,5.7805926 Z" id="spot-right" fill="#28272E"></path>
                    <path d="M70.5738005,6.4070172 C67.1955578,6.68459671 64.2074736,9.44704038 64.2074736,12.6341221 C64.2074736,15.8212038 68.0943242,18.9038277 71.617563,18.8740471 C75.5303515,17.3518734 76.6135013,15.1260126 77.8599641,10.5959969 C76.3622874,7.283624 73.9520432,6.12943769 70.5738005,6.4070172 Z" id="spot-forehead" fill="#302F39"></path>
                    <g id="eye-right" transform="translate(99.151157, 62.772745)">
                        <path d="M0.332143701,16.4272278 C-0.275059784,15.5707679 0.160838755,5.3617774 6.03772417,1.93971053 C11.9146096,-1.48235633 18.2291503,1.61191107 18.7392071,2.63480933 C19.2492639,3.65770758 20.6558869,8.69930833 17.6558443,12.184941 C14.6558018,15.6705736 0.939347186,17.2836878 0.332143701,16.4272278 Z" id="Path-81" stroke="#000000" stroke-width="3" fill="#F6F7EB"></path>
                        <circle id="Oval-5" fill="#090D0E" cx="10.1977036" cy="7.90195703" r="6.0533356"></circle>
                    </g>
                    <g id="eye-left" transform="translate(29.902730, 69.854970)">
                        <path d="M0.184383192,4.09320001 C3.31187667,0.868631832 6.58216843,-0.31156434 9.99525848,0.552611489 C13.4083485,1.41678732 16.2579844,5.03713928 18.5441662,11.4136674 C14.8894423,15.035833 11.1707064,16.1909582 7.38795876,14.8790429 C3.60521108,13.5671276 1.20401922,9.97184666 0.184383192,4.09320001 Z" id="Path-84" stroke="#000000" stroke-width="3" fill="#F6F7EB"></path>
                        <circle id="Oval-5" fill="#090D0E" cx="8.61080592" cy="7.430435" r="5.46315014"></circle>
                    </g>
                    <path d="M63.7706401,147.015957 C63.9668967,141.983001 69.508185,136.054708 82.9526599,136.285674 C96.3971348,136.516639 99.7846292,143.689402 99.1468602,146.407286 C98.5090912,149.125171 99.1706221,156.35021 82.1205187,157.625748 C65.0704152,158.901286 63.5743835,152.048914 63.7706401,147.015957 Z" id="Nosie" fill="#28272E"></path>
                    <path d="M64.9655032,165.894499 C71.5824582,169.599056 77.6205309,168.780663 83.0797213,163.439319 C93.5555298,167.111754 95.7332362,166.462468 104.143503,159.892704" id="Mouth" stroke="#080808" stroke-width="3"></path>
                    <g id="ear-left" transform="translate(108.987581, 1.393457)">
                        <g id="ear-flap--little" transform="translate(33.050386, 13.377537)">
                            <path d="M0.0351985851,0.186907615 C5.51234642,0.273207664 9.45414557,2.47547512 11.8605961,6.79370998 C14.2670465,11.1119448 14.0139965,24.9931558 11.101446,48.4373427 L0.0351985851,0.186907615 Z" id="Path-89" stroke="#28272E" fill="#FFFFFF"></path>
                            <path d="M0.262578239,2.15586838 C7.04178271,4.32201404 10.9592243,7.62575814 12.0149031,12.0671007 C13.5984212,18.7291145 12.2252957,41.5696051 11.6030211,45.1633064 C11.1881714,47.5591073 7.40802378,33.2232946 0.262578239,2.15586838 Z" id="Path-90" fill="#28272E"></path>
                        </g>
                        <g id="ear-flap--big">
                            <path d="M0.14626828,7.71291262 C4.22477751,4.40629437 7.23423128,2.39061263 9.17462958,1.66586739 C10.5133087,1.16586627 17.894055,-1.27187655 22.741789,0.875454123 C28.4341477,3.39691595 34.2902861,11.7682347 38.2651835,26.3166559 C39.377659,30.3883995 43.1673292,38.569153 43.9844477,52.27906 C44.8678591,67.1012518 44.8678591,74.9459773 43.9844477,75.8132367 L32.4534515,36.4695148 C23.2291728,26.0350829 15.813729,18.7063776 10.20712,14.4833988 C4.600511,10.2604199 1.24689376,8.00359122 0.14626828,7.71291262 Z" id="Path-88" stroke="#28272E" stroke-width="2" fill="#FFFFFF"></path>
                            <path d="M9.29252882,8.42588911 C11.6163299,5.9963973 20.6415519,0.207474681 24.448624,4.99184195 C28.2556961,9.77620922 33.9874351,19.9395493 37.0776831,30.2299241 C40.1679311,40.5202988 45.2590454,75.8758051 43.615079,74.1978138 C41.9711125,72.5198226 35.0187053,42.876255 31.0922397,43.5556175 C28.474596,44.0085258 26.6992558,45.1362599 25.7662194,46.9388199 C21.4680004,35.2415833 17.9403466,27.0872538 15.1832581,22.4758312 C11.0476254,15.5586974 8.96778268,11.8938012 9.29252882,8.42588911 Z" id="Path-87" fill="#28272E"></path>
                        </g>
                    </g>
                </g>
            </g>
        </g>
    </g>
</svg>