<svg xmlns="http://www.w3.org/2000/svg" width="351" height="327" viewBox="0 0 351 327">
  <g fill="none" fill-rule="evenodd">
    <path fill="#FFFFFF" d="M56.8767394,107.374625 C56.8767394,107.374625 46.1005688,133.845798 46.1005688,155.409792 C46.1005688,176.973786 81.5687121,208.303663 92.710303,215.11256 C103.851894,221.921457 185.553165,254.038123 209.693278,249.473999 C233.833392,244.909876 280.144824,226.955417 280.144824,226.955417 C280.144824,226.955417 288.899996,191.952614 264.304971,173.681203 C239.709947,155.409792 236.204895,144.704236 203.317067,128.416578 C170.429238,112.128921 146.188448,91.3144273 138.440045,79.546147 C130.691643,67.7778667 108.546155,0.502200477 79.8121861,0.502200477 C76.9633281,0.502200477 74.2815856,0.00401108304 72.1837099,0.0120249984 C70.0858342,0.0200389137 67.8343917,0.535521621 65.8312123,0.502200477 C62.1685225,0.441274828 53.6037791,1.10533143 47.8708548,3.33152051 C40.5320146,6.1813132 36.8106934,13.6794008 35.8075623,15.6350678 C33.8751206,19.402484 33.4575018,18.1138354 30.7144833,18.1138354 C27.9714648,18.1138354 11.3269584,17.791437 11.3269584,17.791437 C11.3269584,17.791437 -3.56470429,34.5279633 9.94226104,50.7130651 C23.4492264,66.8981669 43.3141724,74.611063 43.3141724,74.611063 C43.3141724,74.611063 54.6137257,88.7208355 54.6137257,91.937772 C54.6137257,95.1547085 56.8767394,107.374625 56.8767394,107.374625 Z"/>
    <path fill="#FFFFFF" d="M217.948665,232.716347 C217.948665,232.716347 177.932195,266.455126 268.23913,286.197417 C270.749431,286.746202 269.442647,287.23099 269.442647,287.23099 L266.046112,288.278686 C266.046112,288.278686 262.614128,289.513276 259.820299,289.905249 C255.744679,290.477057 251.432514,291.852333 249.636728,294.278536 C246.850519,298.042851 247.4548,305.637849 250.042492,307.853008 C252.630184,310.068167 273.450483,311.98409 276.402606,306.972766 C279.35473,301.961441 277.020858,301.580702 277.020858,301.580702 C277.020858,301.580702 298.965886,289.968727 298.965886,288.278686 C298.965886,286.588644 301.024979,282.273014 295.004883,279.887278 C288.984787,277.501543 276.87823,269.281294 276.87823,269.281294 C276.87823,269.281294 260.867686,241.612718 271.045801,232.258332 C281.223916,222.903945 217.948665,232.716347 217.948665,232.716347 Z"/>
    <path fill="#8C5A29" d="M276.912373 189.698007C276.912373 189.698007 287.851051 212.788726 279.834547 234.775013 271.818043 256.761301 273.531938 259.513978 273.531938 259.513978 273.531938 259.513978 273.803839 266.832557 276.819193 268.734379 279.834547 270.636202 265.878987 268.446014 255.274839 248.969176 244.670691 229.492338 276.912373 189.698007 276.912373 189.698007zM217.365088 227.441822C217.693775 228.941081 219.216813 226.971446 222.033736 226.130239 230.984449 223.45732 249.680161 217.040344 249.680161 210.072778 249.680161 200.912415 233.473715 196.352958 233.473715 196.352958 233.473715 196.352958 219.616582 202.767699 219.616582 215.10476 219.616582 227.441822 217.0364 225.942562 217.365088 227.441822z"/>
    <path fill="#061C52" d="M52.8703091,91.7432699 C53.8964656,93.1788619 55.0125776,94.5914362 55.0125776,94.5914362 C55.0125776,94.5914362 59.6413842,100.305625 83.5393636,90.6347244 C107.437343,80.9638243 125.934517,66.7107419 125.934517,64.837516 C125.934517,62.9642901 129.434528,58.9024484 127.684522,56.3198603 C125.934517,53.7372723 132.315453,67.5857635 132.315453,67.5857635 C132.315453,67.5857635 129.366566,81.6328335 98.8965099,94.6052411 C68.4264534,107.577649 59.2920203,105.738404 57.1522989,105.738404 C55.0125776,105.738404 50.077352,99.5253911 49.3957563,97.866954 C49.0598968,97.0497513 48.8257585,94.2856901 49.3957563,91.7432699 C49.9657541,89.2008498 51.3789813,86.7407425 51.3789813,86.7407425 C51.3789813,86.7407425 51.8441526,90.3076779 52.8703091,91.7432699 Z"/>
    <path fill="#FFFFFF" d="M183.213147 247.54C183.213147 247.54 181.882104 255.86625 177.270428 255.86625 172.658753 255.86625 158.416585 252.001442 149.183839 256.583463 139.951093 261.165485 133.983319 265.423351 137.226368 267.78483 140.469417 270.14631 176.224287 271.961957 180.872076 270.829072 185.519865 269.696186 188.609565 270.829072 194.227957 269.696186 199.846348 268.563301 215.336714 265.003421 215.336714 262.307075 215.336714 259.61073 211.529929 247.826572 211.529929 247.826572L183.213147 247.54zM58.6583365 182.549178C58.6583365 182.549178 42.1836176 254.802497 30.1639335 263.912349 18.1442494 273.022201 11.3512123 272.56065 11.3512123 272.56065 11.3512123 272.56065 6.42530071 271.765212 4.27057561 272.56065 2.11585051 273.356088.391818983 279.46105.391818983 282.181164.391818983 284.08775 2.04861098 287.565919 9.11359577 289.398497 16.1785806 291.231075 18.3405754 290.507083 23.0530308 289.398497 38.8095981 285.691828 33.4578773 279.444708 34.6635187 278.341628 35.8691602 277.238548 37.5094125 279.272976 39.7957189 278.042243 42.0820253 276.81151 42.8792155 275.59233 43.6912014 273.481971 44.5031873 271.371612 43.5415122 268.30689 43.5415122 268.30689 43.5415122 268.30689 79.5684882 220.048909 82.5105932 206.93122 85.4526983 193.813532 58.6583365 182.549178 58.6583365 182.549178zM84.8761004 195.459373C84.8761004 195.459373 98.0619741 201.973379 93.9334898 226.763541 89.8050054 251.553703 86.0927899 275.981222 86.0927899 282.500311 86.0927899 289.019401 79.7382136 302.38294 79.7382136 302.38294 79.7382136 302.38294 67.0493957 311.372742 67.0493957 314.490788 67.0493957 317.608834 64.3618336 323.37722 66.7325142 323.37722 69.1031948 323.37722 93.4810439 331.453637 97.0209666 322.972213 100.560889 314.490788 98.9036157 307.881886 98.9036157 307.881886 98.9036157 307.881886 103.888993 288.1111 105.858064 290.92412 107.827135 293.73714 108.112543 292.134879 108.112543 292.134879 108.112543 292.134879 107.623775 282.610082 108.350542 278.644706 109.077309 274.67933 120.683518 228.146678 123.140709 223.63041 125.5979 219.114142 131.209567 192.870991 131.209567 192.870991L84.8761004 195.459373z"/>
    <path fill="#8C5A29" d="M146.049205 89.0956478C146.049205 89.0956478 131.270567 127.278322 135.897744 144.008438 136.293027 145.437633 134.682344 141.290558 125.430171 148.139289 116.177997 154.98802 113.562779 157.361852 108.936299 163.966093 104.309819 170.570333 97.3043649 183.922337 98.5521773 195.089392 99.7999897 206.256448 105.117829 209.28101 111.564022 211.24952 118.010215 213.218031 127.612939 207.798021 128.455292 204.221075 129.297645 200.644129 129.626812 197.144558 130.787999 199.318382 131.278387 200.236424 139.18944 202.920096 143.794838 201.084261 148.400235 199.248427 153.504671 191.096249 153.504671 191.096249 153.504671 191.096249 163.843582 201.466507 176.984632 195.089392 190.125682 188.712278 198.262654 176.846106 199.014016 177.10807 208.229237 180.320975 222.308556 202.928589 239.047016 173.999288 240.874506 170.840812 240.874506 176.388161 240.874506 176.388161 240.874506 176.388161 252.514297 193.031007 256.556772 195.089392 260.599246 197.147778 258.627224 185.801571 258.627224 185.801571 258.627224 185.801571 267.647836 180.104874 264.892889 174.38668 263.817888 172.155397 246.674628 155.998348 224.717619 140.392255 202.76061 124.786162 146.049205 89.0956478 146.049205 89.0956478zM57.752999 29.8759304C57.752999 29.8759304 56.0202829 30.7800062 56.886641 33.0248096 57.752999 35.2696131 66.336624 41.9357665 73.9415737 41.2655676 81.5465235 40.5953688 81.2001265 36.0712067 81.2001265 36.0712067 81.2001265 36.0712067 92.1197371 38.4623363 93.4771697 35.7435729 94.8346022 33.0248096 94.9642878 31.0359701 94.9642878 31.0359701 94.9642878 31.0359701 91.1214995 27.5830169 92.2993346 23.0456301 93.4771697 18.5082432 90.5758816 5.3431662 86.3512887 4.85256871 84.4309197 4.62955829 79.2022331 3.66322615 71.5730658 5.51282238 63.9438985 7.36241861 50.7045899 13.1571092 49.1114133 17.4104949 48.3242786 19.5119491 48.0777207 22.0903677 48.2200125 23.6305399 48.3623044 25.170712 54.4323004 29.8759304 57.752999 29.8759304z"/>
    <ellipse cx="56.292" cy="22.352" fill="#FFFFFF" rx="3.725" ry="3.725"/>
    <ellipse cx="57.167" cy="20.486" fill="#000000" rx="1.971" ry="1.86"/>
    <path fill="#1F1F1F" d="M11.3471726,18.6224658 C14.3226902,17.2125197 24.3700263,19.964099 23.1269177,24.5855447 C21.8838091,29.2069904 17.8264296,28.5063862 15.4808067,28.5063862 C13.1351838,28.5063862 9.36614201,27.8073707 7.26278631,24.9279034 C6.56043225,23.9663896 7.88646207,22.9116311 8.49398017,21.9761516 C9.10149826,21.040672 8.3716551,20.0324118 11.3471726,18.6224658 Z"/>
    <path stroke="#1F1F1F" stroke-width="3" d="M5.21185565,39.5953828 C5.21185565,39.5953828 10.7927382,39.1704131 13.0398656,41.6884576 C15.286993,44.2065021 19.1680337,49.3045493 19.1680337,49.3045493 C19.1680337,49.3045493 25.8863806,60.8756389 37.1688822,61.7009538 C48.4513838,62.5262687 55.1664169,54.5866383 55.1664169,54.5866383"/>
    <path fill="#FFFFFF" d="M92.7284885,11.64775 C92.7284885,11.64775 94.74349,6.11986424 98.8279976,6.11986424 C99.5251882,6.11986424 101.274407,6.04793024 101.895453,6.26918874 C101.961847,6.29284312 101.739295,6.30466061 101.490889,6.39567351 C101.242484,6.48668641 100.947373,6.66472794 100.979579,6.71739009 C101.042764,6.82070667 102.300895,7.56802298 102.780419,8.41209029 C103.848995,10.2930176 106.544899,18.1020709 106.544899,19.9773016 C106.544899,24.7766268 108.350721,33.6240951 108.350721,33.6240951 C108.350721,33.6240951 113.56052,36.5261286 114.409909,32.9566673 C115.259298,29.387206 118.362485,29.9337782 119.21946,25.8812563 C120.076434,21.8287344 116.04431,12.6630277 113.428885,9.53387685 C111.491678,7.21616168 105.37427,6.42987144 102.440932,6.26918874 C101.413966,6.21293348 100.979579,6.71739009 100.979579,6.71739009"/>
    <path fill="#8C5A29" d="M97.2166463,8.56124952 C97.2166463,7.9084741 100.057992,6.78337344 101.023027,6.78337344 C101.988061,6.78337344 103.493204,9.3936969 104.266222,11.1616499 C105.039241,12.9296029 106.860544,18.5399574 106.513365,18.9284226 C106.166186,19.3168879 102.993678,14.9899935 102.993678,14.9899935 C102.993678,14.9899935 97.2166463,9.21402495 97.2166463,8.56124952 Z"/>
    <path stroke="#8C5A29" d="M106.428253,18.9431096 C106.428253,18.9431096 107.651218,32.082025 108.276904,33.4063854 C108.902591,34.7307457 112.242167,35.4879479 113.116529,34.7307457 C113.990891,33.9735435 114.28294,34.0508697 114.906593,31.9044721"/>
    <g transform="translate(277.323 225.175)">
      <path fill="#8C5A29" d="M0.224783523,14.2048959 C0.224783523,14.2048959 5.82559965,45.5037545 26.1370076,53.6890898 C46.4484156,61.8744252 63.3707607,59.9118552 72.5718606,48.6726631 C73.1210953,48.00177 73.6248691,46.4423019 73.1210953,46.9752077 C72.6173215,47.5081134 57.1684111,50.9538045 51.8766204,50.9538045 C43.5948963,50.9538045 37.3613923,49.7020433 31.3406969,46.9752077 C25.3200015,44.248372 23.2591585,41.6718156 19.3930939,36.2465157 C15.5270293,30.8212157 4.95047213,9.02110525 4.95047213,2.52018189 C4.95047213,-7.16919825 0.224783523,14.2048959 0.224783523,14.2048959 Z"/>
      <path fill="#FFFFFF" d="M22.6590573,51.7338036 C22.6590573,51.7338036 25.0430261,44.1123539 26.4996733,44.7307872 C27.9563205,45.3492206 35.2786171,49.0894696 40.6390909,49.9700925 C45.9995647,50.8507154 56.1856537,51.6399042 64.1187548,49.0835487 C67.9040157,47.8637895 73.026158,46.6770219 73.3836748,47.0303357 C73.7411917,47.3836495 71.8626582,50.5105384 68.8372638,52.634303 C64.4646388,55.7037957 60.8651321,57.2921184 55.7392753,58.1269726 C50.6134186,58.9618268 48.4482852,58.9452335 44.711617,58.5915863 C40.9749487,58.2379391 31.9581852,55.7946115 31.8188248,55.7509857 C21.3201085,52.4644365 22.6590573,51.7338036 22.6590573,51.7338036 Z"/>
    </g>
  </g>
</svg>
