<svg xmlns="http://www.w3.org/2000/svg" width="3129" height="242" viewBox="0 0 3129 242" xmlns:xlink="http://www.w3.org/1999/xlink">
  <defs>
    <polygon id="a" points="84.448 36.867 94.602 36.867 97.127 44.167 84.448 44.167"/>
    <mask id="b" width="12.679" height="7.3" x="0" y="0" fill="white">
      <use xlink:href="#a"/>
    </mask>
  </defs>
  <g fill="none" fill-rule="evenodd">
    <g transform="translate(2976 75)">
      <g transform="translate(33.98)">
        <path fill="#263036" d="M6.40301427,1.38257931 C6.53877545,0.963394431 6.97910771,0.781169701 7.36496797,0.965283534 L17.3808978,5.74440033 C17.776409,5.93311912 18.1803449,6.44221581 18.280008,6.8682238 L24.1405139,31.918828 C24.2415676,32.3507798 24.2154161,33.0370293 24.0794035,33.4600035 L18.3411185,51.3050165 C18.2063144,51.7242324 17.8140433,51.8593032 17.4487277,51.5949626 L7.29713805,44.2493196 C6.9390883,43.9902364 6.57228607,43.4391139 6.47449456,43.0033458 L1.10232842,19.064472 C1.00604471,18.6354228 1.03716432,17.9505203 1.17380871,17.5286084 L6.40301427,1.38257931 Z"/>
        <path stroke="#6F8D9C" stroke-width="2" d="M6.33246073 1.40389818L18.0696548 52.8073415M.463350785 19.4985858L24.2486911 32.9136129M18.3795812 6.39553615L6.02356021 44.4567757"/>
        <path stroke="#BDBEBE" stroke-width="2.4" d="M6.01570303,0.758540534 C6.1534806,0.339610165 6.58768764,0.151544885 6.99343115,0.342196839 L18.0743969,5.54895368 C18.4766037,5.73794377 18.8797343,6.23761641 18.9785277,6.68169497 L24.7229177,32.5028719 C24.8200486,32.9394775 24.7893631,33.6313069 24.6516466,34.0565555 L18.8414756,51.997524 C18.7049828,52.4189941 18.2942397,52.5570766 17.9323068,52.3115377 L6.6117372,44.631552 C6.24610997,44.3835069 5.86560357,43.8271475 5.7651233,43.4027055 L0.184587242,19.8297782 C0.0826425235,19.3991502 0.114092,18.7031458 0.249468357,18.2915166 L6.01570303,0.758540534 Z"/>
        <ellipse cx="11.584" cy="26.05" fill="#6F8D9C" rx="3.552" ry="3.588"/>
      </g>
      <path fill="#6D8B9A" stroke="#BDBEBE" stroke-width="1.6" d="M41.4420357,25.2125158 C38.5198529,18.9169155 27.5845581,13.8010384 22.1067255,24.3097726 C16.6288929,34.8185068 28.3060467,45.2520077 35.3319817,42.4656751 C42.3579168,39.6793425 44.3642186,31.508116 41.4420357,25.2125158 Z" transform="rotate(30 31.714 30.595)"/>
      <g transform="translate(0 13.727)">
        <path fill="#263036" d="M6.40301427,1.38257931 C6.53877545,0.963394431 6.97910771,0.781169701 7.36496797,0.965283534 L17.3808978,5.74440033 C17.776409,5.93311912 18.1803449,6.44221581 18.280008,6.8682238 L24.1405139,31.918828 C24.2415676,32.3507798 24.2154161,33.0370293 24.0794035,33.4600035 L18.3411185,51.3050165 C18.2063144,51.7242324 17.8140433,51.8593032 17.4487277,51.5949626 L7.29713805,44.2493196 C6.9390883,43.9902364 6.57228607,43.4391139 6.47449456,43.0033458 L1.10232842,19.064472 C1.00604471,18.6354228 1.03716432,17.9505203 1.17380871,17.5286084 L6.40301427,1.38257931 Z"/>
        <path stroke="#6F8D9C" stroke-width="2" d="M6.02356021 1.40389818L17.7607543 52.8073415M.463350785 19.4985858L24.2486911 32.9136129M18.3795812 6.39553615L6.02356021 44.4567757"/>
        <path stroke="#BDBEBE" stroke-width="2.4" d="M6.01570303,0.758540534 C6.1534806,0.339610165 6.58768764,0.151544885 6.99343115,0.342196839 L18.0743969,5.54895368 C18.4766037,5.73794377 18.8797343,6.23761641 18.9785277,6.68169497 L24.7229177,32.5028719 C24.8200486,32.9394775 24.7893631,33.6313069 24.6516466,34.0565555 L18.8414756,51.997524 C18.7049828,52.4189941 18.2942397,52.5570766 17.9323068,52.3115377 L6.6117372,44.631552 C6.24610997,44.3835069 5.86560357,43.8271475 5.7651233,43.4027055 L0.184587242,19.8297782 C0.0826425235,19.3991502 0.114092,18.7031458 0.249468357,18.2915166 L6.01570303,0.758540534 Z"/>
      </g>
      <g stroke="#BDBEBE" stroke-width=".8" transform="translate(25.948 25.27)">
        <ellipse cx="8.132" cy="8.504" fill="#263036" transform="rotate(30 8.132 8.504)" rx="5.718" ry="6.309"/>
        <ellipse cx="8.215" cy="8.706" fill="#394248" transform="rotate(30 8.215 8.706)" rx="2.526" ry="2.816"/>
        <path d="M3.70680628 4.6796606L6.43872564 7.21494984M8.03141361 2.49581899L8.03141361 6.23954747M2.47120419 9.04734383L5.56020942 9.04734383M6.17801047 10.6072307L4.01570681 12.7910723M8.03141361 11.5431628L8.03141361 14.6629365M9.88481675 10.6072307L12.0471204 12.7910723M11.582231 3.74372848L9.72882786 6.55152484M10.5026178 8.11141171L13.9005236 8.11141171"/>
      </g>
      <path fill="#BDBEBE" stroke="#BDBEBE" stroke-width=".5" d="M42.3492923,25.3419477 L44.5936869,25.0148147 C44.8082448,24.9835416 45.0053172,25.1429218 45.0317582,25.3540166 L45.1213029,26.0689073 C45.148685,26.2875164 45.0070951,26.555511 44.8262062,26.6557661 L43.0835743,27.6215944 L42.3492923,25.3419477 Z"/>
    </g>
    <g transform="translate(2872 39)">
      <g transform="translate(33.98)">
        <path fill="#263036" d="M6.40301427,1.38257931 C6.53877545,0.963394431 6.97910771,0.781169701 7.36496797,0.965283534 L17.3808978,5.74440033 C17.776409,5.93311912 18.1803449,6.44221581 18.280008,6.8682238 L24.1405139,31.918828 C24.2415676,32.3507798 24.2154161,33.0370293 24.0794035,33.4600035 L18.3411185,51.3050165 C18.2063144,51.7242324 17.8140433,51.8593032 17.4487277,51.5949626 L7.29713805,44.2493196 C6.9390883,43.9902364 6.57228607,43.4391139 6.47449456,43.0033458 L1.10232842,19.064472 C1.00604471,18.6354228 1.03716432,17.9505203 1.17380871,17.5286084 L6.40301427,1.38257931 Z"/>
        <path stroke="#6F8D9C" stroke-width="2" d="M6.33246073 1.40389818L18.0696548 52.8073415M.463350785 19.4985858L24.2486911 32.9136129M18.3795812 6.39553615L6.02356021 44.4567757"/>
        <path stroke="#BDBEBE" stroke-width="2.4" d="M6.01570303,0.758540534 C6.1534806,0.339610165 6.58768764,0.151544885 6.99343115,0.342196839 L18.0743969,5.54895368 C18.4766037,5.73794377 18.8797343,6.23761641 18.9785277,6.68169497 L24.7229177,32.5028719 C24.8200486,32.9394775 24.7893631,33.6313069 24.6516466,34.0565555 L18.8414756,51.997524 C18.7049828,52.4189941 18.2942397,52.5570766 17.9323068,52.3115377 L6.6117372,44.631552 C6.24610997,44.3835069 5.86560357,43.8271475 5.7651233,43.4027055 L0.184587242,19.8297782 C0.0826425235,19.3991502 0.114092,18.7031458 0.249468357,18.2915166 L6.01570303,0.758540534 Z"/>
        <ellipse cx="11.584" cy="26.05" fill="#6F8D9C" rx="3.552" ry="3.588"/>
      </g>
      <path fill="#6D8B9A" stroke="#BDBEBE" stroke-width="1.6" d="M41.4420357,25.2125158 C38.5198529,18.9169155 27.5845581,13.8010384 22.1067255,24.3097726 C16.6288929,34.8185068 28.3060467,45.2520077 35.3319817,42.4656751 C42.3579168,39.6793425 44.3642186,31.508116 41.4420357,25.2125158 Z" transform="rotate(30 31.714 30.595)"/>
      <g transform="translate(0 13.727)">
        <path fill="#263036" d="M6.40301427,1.38257931 C6.53877545,0.963394431 6.97910771,0.781169701 7.36496797,0.965283534 L17.3808978,5.74440033 C17.776409,5.93311912 18.1803449,6.44221581 18.280008,6.8682238 L24.1405139,31.918828 C24.2415676,32.3507798 24.2154161,33.0370293 24.0794035,33.4600035 L18.3411185,51.3050165 C18.2063144,51.7242324 17.8140433,51.8593032 17.4487277,51.5949626 L7.29713805,44.2493196 C6.9390883,43.9902364 6.57228607,43.4391139 6.47449456,43.0033458 L1.10232842,19.064472 C1.00604471,18.6354228 1.03716432,17.9505203 1.17380871,17.5286084 L6.40301427,1.38257931 Z"/>
        <path stroke="#6F8D9C" stroke-width="2" d="M6.02356021 1.40389818L17.7607543 52.8073415M.463350785 19.4985858L24.2486911 32.9136129M18.3795812 6.39553615L6.02356021 44.4567757"/>
        <path stroke="#BDBEBE" stroke-width="2.4" d="M6.01570303,0.758540534 C6.1534806,0.339610165 6.58768764,0.151544885 6.99343115,0.342196839 L18.0743969,5.54895368 C18.4766037,5.73794377 18.8797343,6.23761641 18.9785277,6.68169497 L24.7229177,32.5028719 C24.8200486,32.9394775 24.7893631,33.6313069 24.6516466,34.0565555 L18.8414756,51.997524 C18.7049828,52.4189941 18.2942397,52.5570766 17.9323068,52.3115377 L6.6117372,44.631552 C6.24610997,44.3835069 5.86560357,43.8271475 5.7651233,43.4027055 L0.184587242,19.8297782 C0.0826425235,19.3991502 0.114092,18.7031458 0.249468357,18.2915166 L6.01570303,0.758540534 Z"/>
      </g>
      <g stroke="#BDBEBE" stroke-width=".8" transform="translate(25.948 25.27)">
        <ellipse cx="8.132" cy="8.504" fill="#263036" transform="rotate(30 8.132 8.504)" rx="5.718" ry="6.309"/>
        <ellipse cx="8.215" cy="8.706" fill="#394248" transform="rotate(30 8.215 8.706)" rx="2.526" ry="2.816"/>
        <path d="M3.70680628 4.6796606L6.43872564 7.21494984M8.03141361 2.49581899L8.03141361 6.23954747M2.47120419 9.04734383L5.56020942 9.04734383M6.17801047 10.6072307L4.01570681 12.7910723M8.03141361 11.5431628L8.03141361 14.6629365M9.88481675 10.6072307L12.0471204 12.7910723M11.582231 3.74372848L9.72882786 6.55152484M10.5026178 8.11141171L13.9005236 8.11141171"/>
      </g>
      <path fill="#BDBEBE" stroke="#BDBEBE" stroke-width=".5" d="M42.3492923,25.3419477 L44.5936869,25.0148147 C44.8082448,24.9835416 45.0053172,25.1429218 45.0317582,25.3540166 L45.1213029,26.0689073 C45.148685,26.2875164 45.0070951,26.555511 44.8262062,26.6557661 L43.0835743,27.6215944 L42.3492923,25.3419477 Z"/>
    </g>
    <g transform="translate(2872 143)">
      <g transform="translate(33.98)">
        <path fill="#263036" d="M6.40301427,1.38257931 C6.53877545,0.963394431 6.97910771,0.781169701 7.36496797,0.965283534 L17.3808978,5.74440033 C17.776409,5.93311912 18.1803449,6.44221581 18.280008,6.8682238 L24.1405139,31.918828 C24.2415676,32.3507798 24.2154161,33.0370293 24.0794035,33.4600035 L18.3411185,51.3050165 C18.2063144,51.7242324 17.8140433,51.8593032 17.4487277,51.5949626 L7.29713805,44.2493196 C6.9390883,43.9902364 6.57228607,43.4391139 6.47449456,43.0033458 L1.10232842,19.064472 C1.00604471,18.6354228 1.03716432,17.9505203 1.17380871,17.5286084 L6.40301427,1.38257931 Z"/>
        <path stroke="#6F8D9C" stroke-width="2" d="M6.33246073 1.40389818L18.0696548 52.8073415M.463350785 19.4985858L24.2486911 32.9136129M18.3795812 6.39553615L6.02356021 44.4567757"/>
        <path stroke="#BDBEBE" stroke-width="2.4" d="M6.01570303,0.758540534 C6.1534806,0.339610165 6.58768764,0.151544885 6.99343115,0.342196839 L18.0743969,5.54895368 C18.4766037,5.73794377 18.8797343,6.23761641 18.9785277,6.68169497 L24.7229177,32.5028719 C24.8200486,32.9394775 24.7893631,33.6313069 24.6516466,34.0565555 L18.8414756,51.997524 C18.7049828,52.4189941 18.2942397,52.5570766 17.9323068,52.3115377 L6.6117372,44.631552 C6.24610997,44.3835069 5.86560357,43.8271475 5.7651233,43.4027055 L0.184587242,19.8297782 C0.0826425235,19.3991502 0.114092,18.7031458 0.249468357,18.2915166 L6.01570303,0.758540534 Z"/>
        <ellipse cx="11.584" cy="26.05" fill="#6F8D9C" rx="3.552" ry="3.588"/>
      </g>
      <path fill="#6D8B9A" stroke="#BDBEBE" stroke-width="1.6" d="M41.4420357,25.2125158 C38.5198529,18.9169155 27.5845581,13.8010384 22.1067255,24.3097726 C16.6288929,34.8185068 28.3060467,45.2520077 35.3319817,42.4656751 C42.3579168,39.6793425 44.3642186,31.508116 41.4420357,25.2125158 Z" transform="rotate(30 31.714 30.595)"/>
      <g transform="translate(0 13.727)">
        <path fill="#263036" d="M6.40301427,1.38257931 C6.53877545,0.963394431 6.97910771,0.781169701 7.36496797,0.965283534 L17.3808978,5.74440033 C17.776409,5.93311912 18.1803449,6.44221581 18.280008,6.8682238 L24.1405139,31.918828 C24.2415676,32.3507798 24.2154161,33.0370293 24.0794035,33.4600035 L18.3411185,51.3050165 C18.2063144,51.7242324 17.8140433,51.8593032 17.4487277,51.5949626 L7.29713805,44.2493196 C6.9390883,43.9902364 6.57228607,43.4391139 6.47449456,43.0033458 L1.10232842,19.064472 C1.00604471,18.6354228 1.03716432,17.9505203 1.17380871,17.5286084 L6.40301427,1.38257931 Z"/>
        <path stroke="#6F8D9C" stroke-width="2" d="M6.02356021 1.40389818L17.7607543 52.8073415M.463350785 19.4985858L24.2486911 32.9136129M18.3795812 6.39553615L6.02356021 44.4567757"/>
        <path stroke="#BDBEBE" stroke-width="2.4" d="M6.01570303,0.758540534 C6.1534806,0.339610165 6.58768764,0.151544885 6.99343115,0.342196839 L18.0743969,5.54895368 C18.4766037,5.73794377 18.8797343,6.23761641 18.9785277,6.68169497 L24.7229177,32.5028719 C24.8200486,32.9394775 24.7893631,33.6313069 24.6516466,34.0565555 L18.8414756,51.997524 C18.7049828,52.4189941 18.2942397,52.5570766 17.9323068,52.3115377 L6.6117372,44.631552 C6.24610997,44.3835069 5.86560357,43.8271475 5.7651233,43.4027055 L0.184587242,19.8297782 C0.0826425235,19.3991502 0.114092,18.7031458 0.249468357,18.2915166 L6.01570303,0.758540534 Z"/>
      </g>
      <g stroke="#BDBEBE" stroke-width=".8" transform="translate(25.948 25.27)">
        <ellipse cx="8.132" cy="8.504" fill="#263036" transform="rotate(30 8.132 8.504)" rx="5.718" ry="6.309"/>
        <ellipse cx="8.215" cy="8.706" fill="#394248" transform="rotate(30 8.215 8.706)" rx="2.526" ry="2.816"/>
        <path d="M3.70680628 4.6796606L6.43872564 7.21494984M8.03141361 2.49581899L8.03141361 6.23954747M2.47120419 9.04734383L5.56020942 9.04734383M6.17801047 10.6072307L4.01570681 12.7910723M8.03141361 11.5431628L8.03141361 14.6629365M9.88481675 10.6072307L12.0471204 12.7910723M11.582231 3.74372848L9.72882786 6.55152484M10.5026178 8.11141171L13.9005236 8.11141171"/>
      </g>
      <path fill="#BDBEBE" stroke="#BDBEBE" stroke-width=".5" d="M42.3492923,25.3419477 L44.5936869,25.0148147 C44.8082448,24.9835416 45.0053172,25.1429218 45.0317582,25.3540166 L45.1213029,26.0689073 C45.148685,26.2875164 45.0070951,26.555511 44.8262062,26.6557661 L43.0835743,27.6215944 L42.3492923,25.3419477 Z"/>
    </g>
    <g transform="translate(1835 73)">
      <path fill="#EEF0EA" stroke="#1E1F17" stroke-width="2" d="M59.1644811,28.7498455 L99.3689149,10.7733017 L121.627064,3.9566757 C121.627064,3.9566757 125.760269,2.64835625 127.856218,3.00021165 C129.952166,3.35206704 130.323451,3.56685881 131.865704,4.64157448 C133.407957,5.71629015 152.528992,19.2033895 154.347089,21.6805199 C156.165187,24.1576502 155.441696,32.1622466 154.347089,35.6932025 C153.252483,39.2241584 146.77244,46.1146496 146.77244,46.1146496 L122.308981,58.4437285 L68.9040722,60.5708623 L57.8284894,45.4795267 L59.1644811,28.7498455 Z"/>
      <path fill="#EBEDDF" stroke="#1E1F17" stroke-width="3" d="M115.289173,5.17091495 L99.9823244,10.181767 L65.6775357,15.8237649 L8.48009097,21.59989 C8.48009097,21.59989 4.11571204,21.3529254 5.15628821,19.9277093 C6.19686439,18.5024933 22.0830919,7.38408188 51.6892239,1.97140023 C81.2953559,-3.44128141 115.289173,5.17091495 115.289173,5.17091495 Z"/>
      <path fill="#D5D6CE" stroke="#1E1F17" stroke-width="2" d="M64.5109462,15.6958175 L5.16522694,21.2759132 C5.16522694,21.2759132 -4.3228354,35.9744964 8.02536067,48 C20.3735567,60.0255036 64.5109462,15.6958175 64.5109462,15.6958175 Z"/>
      <path fill="#D3D4CC" stroke="#1E1F17" stroke-width="3" d="M65.5010859,13.7090502 C65.5010859,2.20343766 104.560637,5.23474313 102.390386,14.5216674 C100.220135,23.8085916 65.5010859,25.2146628 65.5010859,13.7090502 Z"/>
      <path fill="#E6E8DA" stroke="#1E1F17" stroke-width="2" d="M93.5356622,12.8327634 C93.5356622,8.26622533 77.4317702,8.99406124 77.4317702,13.9802524 C77.4317702,18.9664436 93.5356622,17.3993014 93.5356622,12.8327634 Z"/>
      <path fill="#A61A02" d="M91.4422938,16.5209125 C91.4422938,16.5209125 89.5585553,16.9323102 88.5732398,17.1127188 C87.5879243,17.2931275 85.1791045,17.6676858 85.1791045,17.6676858 L85.9268753,21.2542607 C85.9268753,21.2542607 87.8645688,21.2630574 90.8066686,20.6696793 C93.7487685,20.0763013 94.3488799,19.6931339 94.3488799,19.6931339 L91.4422938,16.5209125 Z"/>
      <polygon fill="#A61A02" points="37.839 12.273 35.171 16.414 42.936 15.783 43.996 12.273"/>
      <path fill="#EEF0EA" stroke="#1E1F17" stroke-width="2" d="M154.591629,23.5006878 C154.591629,23.5006878 157.594698,28.47739 159.725725,30.630846 C161.856752,32.784302 198.845626,67.5889629 198.845626,67.5889629 L191.869974,72.8125163 L158.240992,56.0817507 L144.391755,46.4423747 L154.591629,23.5006878 Z"/>
      <path fill="#A61A02" d="M91.6899321,16.0985183 C91.6899321,16.0985183 92.3460176,15.3016565 92.7057362,14.9967472 C93.0654547,14.6918379 93.6064456,13.9657795 93.6064456,13.9657795 L100.729123,14.4687352 C100.729123,14.4687352 100.447946,15.4519976 99.9209392,16.1069076 C99.3939328,16.7618177 96.8631478,18.2312571 96.8631478,18.2312571 L91.6899321,16.0985183 Z"/>
      <polygon fill="#A61A02" points="75.575 39.581 76.72 36.867 84.913 36.867 84.913 39.581"/>
      <polygon fill="#F8FBF4" stroke="#1E1F17" stroke-width="2" points="89.854 24.556 107.828 20.246 153.327 51.796 143.04 56.988"/>
      <polygon fill="#A61A02" points="148.261 45.768 151.088 42.67 155.87 46.874 151.858 49.523"/>
      <use fill="#E6E8DA" stroke="#1E1F17" stroke-width="4" mask="url(#b)" xlink:href="#a"/>
      <polygon fill="#A61A02" points="75.075 43.656 76.72 40.152 84.459 40.152 84.459 43.656"/>
      <path fill="#CECFC0" stroke="#1E1F17" stroke-width="2" d="M65.6442645,15.519609 L19.1629402,29.23032 L28.2999584,34.0725013 L68.0308148,20.2056845 C68.0308148,20.2056845 68.1501,19.7883625 68.0308148,19.5541419 C67.9714741,19.4376242 67.0571434,18.5445482 66.4782239,17.5698768 C65.8993045,16.5952054 65.6442645,15.519609 65.6442645,15.519609 Z"/>
      <polygon fill="#E3E4D5" stroke="#1E1F17" stroke-width="2" points="73.307 22.503 30.684 45.176 28.789 34.139 68.371 20.071"/>
      <path stroke="#1E1F17" stroke-width="2" d="M34.2262443 32.1899168L37.4459906 41.233753M44.2238806 28.8365019L47.0779552 36.785281M55.1940299 24.8212928L57.3880597 31.026616M64.7014925 21.5361217L66.1641791 26.2813688"/>
      <path fill="#949C97" stroke="#1E1F17" stroke-width="2" d="M126.985646,55.7077226 L124.49904,57.1968634 L146.208346,69.069181 L157.457393,63.0374003 L187.19925,80.8195219 C187.19925,80.8195219 189.786926,82.255227 194.355143,80.2577243 C198.92336,78.2602217 199.891623,72.922063 199.891623,72.922063 L199.891623,68.5924302 C199.891623,68.03847 199.500742,67.8113836 199.015282,68.0870835 L191.555641,72.323526 L157.462203,54.7491031 L145.482084,61.8147205 L126.985646,55.7077226 Z"/>
      <path fill="#DDDECF" stroke="#1E1F17" stroke-width="2" d="M19.2360225,35.1541786 L19.2360225,29.2562267 L28.6226221,34.2313554 L30.1420951,44.8985657 C30.1420951,44.8985657 28.0857188,38.8591009 24.9495036,36.3788322 C21.8132884,33.8985635 19.2360225,36.0117547 19.2360225,35.1541786 Z"/>
      <path fill="#E0E1D2" stroke="#1E1F17" stroke-width="2" d="M13.0267746,39.6187364 L19.9001789,35.4852153 C19.9001789,35.4852153 23.8268986,35.1133537 26.3857064,37.5884752 C28.9445142,40.0635967 29.6472947,45.5347096 29.6472947,45.5347096 L20.4702526,50.4676772 C20.4702526,50.4676772 18.2151852,45.097507 16.9134229,43.2666972 C15.6116606,41.4358874 13.0267746,39.6187364 13.0267746,39.6187364 Z"/>
      <polygon fill="#DEDFCE" stroke="#1E1F17" stroke-width="2" points="21.261 50.381 67.06 26.173 30.457 57.22 21.445 52.309"/>
      <polygon fill="#E4E5D6" stroke="#1E1F17" stroke-width="2" points="65.68 28.106 78.245 28.957 63.511 56.976 42.711 65.272 31.037 57.42"/>
      <polygon fill="#4E4F48" stroke="#1E1F17" stroke-width="2" points="20.103 51.042 19.577 60.625 30.18 65.859 30.555 57.13"/>
      <path fill="#777877" stroke="#1E1F17" stroke-width="2" d="M12.2508363,40.118321 C8.26944234,42.3679519 15.176226,61.9322246 20.3790471,60.9583955 C25.5818682,59.9845664 16.2322303,37.8686901 12.2508363,40.118321 Z"/>
      <polygon fill="#505243" stroke="#1E1F17" stroke-width="2" points="30.726 57.572 30.227 66.171 42.815 78.676 42.318 64.728"/>
      <path fill="#EDF1E9" stroke="#1E1F17" stroke-width="3" d="M68.1604685,59.6806904 C68.1604685,59.6806904 80.0712779,62.2590576 96.7598485,60.969874 C113.448419,59.6806904 123.753266,56.447485 123.753266,56.447485 C123.753266,56.447485 172.421063,80.4178609 176.086455,83.0840118 C179.751846,85.7501627 168.967497,89.3356392 168.967497,89.3356392 L71.3733263,64.0063562 L68.1604685,59.6806904 Z"/>
      <path fill="#DADBCC" stroke="#1E1F17" stroke-width="2" d="M42.638806,76.1730159 C42.638806,76.1730159 40.5752673,69.2667945 42.638806,63.0898917 C44.2779972,58.1832115 50.1574314,52.4459591 59.7543388,55.4182747 C63.7871049,56.6672868 67.9746648,59.9365844 67.5270007,60.8450901 C67.0793365,61.7535958 59.9838634,61.0299383 54.3642537,63.5653015 C46.9805231,66.8965719 42.638806,76.1730159 42.638806,76.1730159 Z"/>
      <path fill="#5C5C5B" stroke="#1E1F17" stroke-width="2" d="M42.761194,77.5467993 C42.761194,77.5467993 43.0355312,75.1467339 44.762701,72.3270187 C46.4898708,69.5073035 49.749019,66.1547889 51.7259079,64.7937921 C53.4080424,63.6357201 56.6299973,62.1961781 59.6987366,61.5796638 C62.7674759,60.9631496 67.6310895,60.9581749 67.6310895,60.9581749 L74.2536627,72.3270187 L64.3693744,85.4686268 C64.3693744,85.4686268 57.6531155,83.2931885 51.7259079,84.0663044 C45.7987003,84.8394203 42.761194,77.5467993 42.761194,77.5467993 Z"/>
      <path fill="#6A6C61" stroke="#1E1F17" stroke-width="2" d="M62.8040202,79.8823178 C62.8040202,77.5701036 64.4238897,74.6816332 66.4888566,73.5238182 C68.5538235,72.3660033 71.2604003,71.4027592 73.9330782,73.5238182 C75.9471714,75.7299237 76.2479222,81.4790653 70.8851007,84.6083503 C65.5222793,87.7376352 62.8040202,82.194532 62.8040202,79.8823178 Z"/>
      <path stroke="#1E1F17" stroke-width="2" d="M62.2060629 61.3493574L69.8208955 72.2737643M55.1940299 63.148289L65.7985075 73.7338403M49.3432836 66.7984791L63.238806 77.0190114M44.9552239 72.2737643L62.5074627 79.5741445M42.761194 77.3840304L63.6044776 82.4942966"/>
      <path fill="#797F75" stroke="#1E1F17" stroke-width="2" d="M63.7221852,56.6211033 L65.5176787,53.0631784 C65.5176787,53.0631784 70.1363892,56.0422805 78.2841209,56.6211033 C86.4318527,57.1999262 101.127796,56.3078048 101.127796,56.3078048 L105.531389,59.904452 C105.531389,59.904452 90.8953971,62.1920846 78.2841209,61.4000377 C65.6728448,60.6079908 63.7221852,56.6211033 63.7221852,56.6211033 Z"/>
      <path fill="#EDEEE6" stroke="#1E1F17" stroke-width="2" d="M132.637144,18.1605434 L140.473325,27.4279198 C140.473325,27.4279198 132.20415,31.5516097 129.300459,26.3219976 C126.396768,21.0923855 132.637144,18.1605434 132.637144,18.1605434 Z"/>
      <path fill="#D8D8D8" stroke="#1E1F17" stroke-width="2" d="M140.738932,4.42259076 C138.798284,4.42259076 131.67559,7.03717627 133.003666,17.0149728 C134.331741,26.9927694 141.83866,27.1601736 144.387572,26.2914221 C146.936483,25.4226705 150.378039,21.5950027 150.378039,14.6187078 C150.378039,7.64241282 142.67958,4.42259076 140.738932,4.42259076 Z"/>
      <path stroke="#1E1F17" stroke-width="2" d="M131.619403 17.0055933L137.835821 17.0055933M142.589552 15.5455172L149.537313 14.2357414M140.029851 14.2357414L145.291298 6.3874317"/>
      <path fill="#F2F3EB" stroke="#1E1F17" stroke-width="2" d="M138.6864,13.6061462 C138.6864,13.6061462 137.745069,15.464911 137.790997,16.4278163 C137.836924,17.3907216 138.955568,19.2494864 138.955568,19.2494864 L143.498625,16.1579925 L138.6864,13.6061462 Z"/>
      <path stroke="#1E1F17" stroke-width="2" d="M139.298507 13.8707224L138.567164 4.74524715M142.589552 15.5455172L149.537313 14.2357414M142.589552 17.0055933L149.537313 17.8859316M140.029851 18.8306883L144.41791 25.5513308M141.126866 18.1006503L148.074627 22.2661597M142.589552 15.5455172L149.537313 14.2357414M133.813433 22.2661597L138.567164 18.8306883M139.298507 26.2813688L139.298507 18.8306883M133.447761 9.85551331L138.201493 14.0854412M140.761194 14.8154792L148.074627 9.4904943"/>
      <polygon fill="#DCDDD7" stroke="#1E1F17" stroke-width="2" points="102.134 72.02 104.149 68.134 113.3 69.551 112.152 73.724"/>
      <polygon fill="#E8EADC" stroke="#1E1F17" points="97.93 25.906 108.459 24.15 146.14 49.601 140.342 52.07"/>
      <path fill="#949C97" stroke="#1E1F17" stroke-width="3" d="M74.4946112,73.0879693 C74.4946112,73.0879693 105.83889,81.4078058 122.432757,85.2955357 C130.308096,87.1406263 149.228233,93.933072 157.178737,95.1695564 C165.12924,96.4060408 168.744711,95.1695564 168.744711,95.1695564 L178.164567,89.0499266 C178.164567,89.0499266 177.411216,83.8404375 176.610449,83.2534935 C175.809683,82.6665496 168.393184,88.2096153 168.393184,88.2096153 L69.359151,62.8551673 L74.4946112,73.0879693 Z"/>
      <path stroke="#1E1F17" stroke-width="2" d="M168.186567,88.3346008 L168.85146,94.3294534"/>
      <path fill="#7E7F77" stroke="#1E1F17" stroke-width="2" d="M109.714026 64.0092587C109.565648 62.9321414 107.815243 62.1084326 105.287765 62.1084326 102.760287 62.1084326 100.709576 63.5716109 100.861504 64.6744935 101.013431 65.7773761 102.709861 67.1616099 105.911381 66.6354334 109.112902 66.1092569 109.862404 65.086376 109.714026 64.0092587zM174.01847 52.3107634C173.859573 51.212502 171.990256 49.8451814 169.283591 49.8451814 166.576927 49.8451814 164.387399 51.7781509 164.550098 52.9026833 164.712796 54.0272158 166.517741 55.5249959 169.946235 54.9884905 173.374729 54.451985 174.177368 53.4090247 174.01847 52.3107634zM135.921771 70.9267329C135.739498 69.8284716 133.589247 68.9885932 130.484414 68.9885932 127.379581 68.9885932 124.860425 70.480494 125.047057 71.6050265 125.233689 72.7295589 127.317636 74.1409655 131.250484 73.6044601 135.183331 73.0679546 136.104043 72.0249943 135.921771 70.9267329z"/>
      <polygon fill="#F4F5ED" stroke="#1E1F17" stroke-width="3" points="89.197 24.092 84.581 25.138 123.201 54.306 145.086 62.925 158.644 55.412 153.657 51.58 142.858 57.143"/>
      <path fill="#EDEEE6" stroke="#1E1F17" stroke-width="3" d="M136.875117,5.36636016 C140.754129,3.91071763 102.443972,12.1915632 102.443972,12.1915632 L102.395751,15.2071913 L132.017352,14.5738301 C132.017352,14.5738301 132.996104,6.8220027 136.875117,5.36636016 Z"/>
      <path stroke="#1E1F17" stroke-width="2" d="M106.894177 11.8033898L106.953393 14.8053526M112.438468 10.2205323L112.438468 14.8053526M118.141573 9.4904943L118.141573 14.6825712M123.999515 8.63767487L123.999515 14.6007605M130.183894 7.54261784L130.183894 14.6007605"/>
      <polyline stroke="#1E1F17" stroke-width="2" points="112.98 71.918 166.737 84.458 171.751 81.276"/>
      <path stroke="#1E1F17" stroke-width="2" d="M191.435665,72.3585517 L191.609733,80.9718501"/>
      <polyline stroke="#1E1F17" stroke-width="2" points="188.813 70.601 194.584 67.719 171.234 45.12"/>
      <path fill="#1E1F17" stroke="#1E1F17" d="M4.12160964,19.7061664 C4.12160964,19.7061664 6.98710114,16.5123129 4.77704767,21.7257282 C2.5669942,26.9391434 1.42702024,31.6726798 2.09309901,35.5698497 C2.36466668,37.1587689 2.23513184,40.7242001 4.77704767,44.4112996 C5.84466071,45.9598936 9.71585245,47.7919629 12.4700603,51.0383644 C15.2242682,54.284766 18.506367,60.4353263 18.506367,60.4353263 C18.506367,60.4353263 15.6962044,58.9536219 12.4700603,56.2210984 C9.24391633,53.488575 5.44600519,49.3674483 4.77704767,48.2645458 C3.45401941,46.0832844 0.820376354,42.4754076 0.267249361,35.5698497 C-0.285877632,28.6642918 4.12160964,19.7061664 4.12160964,19.7061664 Z"/>
    </g>
  </g>
</svg>
